<svg xmlns="http://www.w3.org/2000/svg" width="100" height="100" viewBox="0 0 100 100" role="img" aria-label="MathBridge Academy"><rect width="100" height="100" rx="20" fill="#0F1B2D"/><g transform="translate(-46.59,6.28) scale(0.5084)"><path d="M129.1,76 Q190,12 250.9,76" fill="none" stroke="#C9A94A" stroke-width="2.6" stroke-linecap="round"/><circle cx="129.1" cy="76" r="4" fill="#C9A94A"/><circle cx="250.9" cy="76" r="4" fill="#C9A94A"/><path d="M46.55010986328125 -4.4200439453125Q33.840087890625 -4.4200439453125 26.565032958984375 -1.485076904296875Q19.28997802734375 1.44989013671875 19.28997802734375 7.7398681640625Q19.28997802734375 15.31982421875 27.5799560546875 18.884857177734375Q35.86993408203125 22.44989013671875 50.55010986328125 25.7398681640625Q74.97015380859375 31.8997802734375 91.40512084960938 51.18975830078125Q107.840087890625 70.479736328125 112.55010986328125 104.02984619140625Q122.520263671875 178.6610107421875 130.65032958984375 255.23138427734375Q138.7803955078125 331.8017578125 144.71536254882812 401.3614501953125Q150.65032958984375 470.921142578125 152.68017578125 524.520263671875Q152.97015380859375 531.6503295898438 152.97015380859375 540.6503295898438Q152.97015380859375 549.6503295898438 152.2601318359375 557.8102416992188Q151.55010986328125 569.2899780273438 148.24520874023438 578.5149230957031Q144.9403076171875 587.7398681640625 134.07037353515625 595.4498901367188Q118.1002197265625 607.840087890625 102.2601318359375 613.340087890625Q86.4200439453125 618.840087890625 65.7398681640625 622.840087890625Q55.159912109375 625.1300659179688 48.724945068359375 630.4850769042969Q42.28997802734375 635.840087890625 42.28997802734375 643.4200439453125Q42.28997802734375 651.7100219726562 51.21002197265625 653.7899780273438Q60.13006591796875 655.8699340820312 73.97015380859375 655.8699340820312Q85.71002197265625 655.8699340820312 106.78997802734375 654.8699340820312Q127.86993408203125 653.8699340820312 152.7398681640625 652.3049011230469Q177.60980224609375 650.7398681640625 200.42962646484375 649.7398681640625Q223.24945068359375 648.7398681640625 238.1790771484375 648.7398681640625Q245.46905517578125 648.7398681640625 251.04901123046875 644.159912109375Q256.62896728515625 639.5799560546875 258.62896728515625 632.159912109375Q264.4989013671875 613.5799560546875 269.78887939453125 594.5948791503906Q275.078857421875 575.6098022460938 282.36883544921875 556.31982421875L436.30914306640625 173.2984619140625Q439.0191650390625 167.16839599609375 445.4242858886719 166.10336303710938Q451.82940673828125 165.038330078125 454.95947265625 171.16839599609375L632.8209228515625 553.6204833984375Q638.6908569335938 577 643.5458679199219 598.4349670410156Q648.40087890625 619.8699340820312 651.6908569335938 634.7100219726562Q654.9808349609375 647.7100219726562 663.720703125 647.7100219726562H702.3305053710938Q736.3901977539062 648.2899780273438 774.2398681640625 652.4349670410156Q812.0895385742188 656.5799560546875 832.279296875 656.5799560546875Q839.0191650390625 656.5799560546875 846.8741760253906 654.5Q854.7291870117188 652.4200439453125 854.7291870117188 644.840087890625Q854.7291870117188 637.2601318359375 848.7942199707031 633.2601318359375Q842.8592529296875 629.2601318359375 829.59912109375 624.1300659179688Q819.2089233398438 620.2899780273438 805.9637145996094 615.159912109375Q792.718505859375 610.0298461914062 781.6182861328125 605.1897583007812Q765.8187255859375 598.2899780273438 756.9338684082031 586.6151428222656Q748.0490112304688 574.9403076171875 748.6289672851562 556.1109008789062Q749.4989013671875 485.240966796875 752.1438903808594 426.4957580566406Q754.7888793945312 367.75054931640625 757.6438903808594 314.8752746582031Q760.4989013671875 262 764.3539123535156 208.88485717773438Q768.2089233398438 155.76971435546875 771.4989013671875 95.86993408203125Q773.4989013671875 66.60980224609375 792.078857421875 50.3997802734375Q810.6588134765625 34.18975830078125 845.6289672851562 26.8997802734375Q860.3091430664062 23.8997802734375 867.8741760253906 19.8997802734375Q875.439208984375 15.8997802734375 875.439208984375 8.02984619140625Q875.439208984375 1.7398681640625 868.1641540527344 -1.195098876953125Q860.8890991210938 -4.13006591796875 849.3389892578125 -4.13006591796875Q824.078857421875 -4.13006591796875 802.8091430664062 -2.775054931640625Q781.5394287109375 -1.4200439453125 761.479736328125 -0.4200439453125Q741.4200439453125 0.5799560546875 719.2899780273438 0.5799560546875Q699.2899780273438 0.5799560546875 682.020263671875 -0.4200439453125Q664.7505493164062 -1.4200439453125 645.7708129882812 -2.9200439453125Q626.7910766601562 -4.4200439453125 601.240966796875 -4.4200439453125Q589.6908569335938 -4.4200439453125 582.1258239746094 -1.485076904296875Q574.560791015625 1.44989013671875 574.560791015625 7.7398681640625Q574.560791015625 15.31982421875 582.1258239746094 20.10980224609375Q589.6908569335938 24.8997802734375 604.3710327148438 26.8997802734375Q635.9808349609375 32.0596923828125 648.1407470703125 47.3997802734375Q660.3006591796875 62.7398681640625 659.720703125 96.28997802734375Q658.8507690429688 164.81024169921875 657.2057800292969 223.97015380859375Q655.560791015625 283.13006591796875 652.9957580566406 340.78997802734375Q650.4307250976562 398.44989013671875 647.4307250976562 461.68017578125Q646.720703125 471.23028564453125 642.3006591796875 470.73028564453125Q637.880615234375 470.23028564453125 633.4605712890625 461.1002197265625L417.3795166015625 -2.68017578125Q414.2196044921875 -10.86993408203125 406.2046813964844 -10.355010986328125Q398.18975830078125 -9.840087890625 395.60980224609375 -2.55010986328125Q352.840087890625 114.159912109375 305.2953186035156 227.51492309570312Q257.75054931640625 340.86993408203125 205.520263671875 464.6204833984375Q202.9403076171875 471.07037353515625 197.50534057617188 470.200439453125Q192.07037353515625 469.33050537109375 191.07037353515625 462.01068115234375Q184.1002197265625 399.2601318359375 178.63006591796875 340.3251647949219Q173.159912109375 281.39019775390625 170.60980224609375 223.23028564453125Q168.0596923828125 165.07037353515625 168.0596923828125 102.5799560546875Q168.0596923828125 75.28997802734375 185.34967041015625 54.674835205078125Q202.6396484375 34.0596923828125 236.24945068359375 26.8997802734375Q250.92962646484375 24.18975830078125 259.2196044921875 20.044769287109375Q267.50958251953125 15.8997802734375 267.50958251953125 8.02984619140625Q267.50958251953125 1.7398681640625 259.50958251953125 -1.195098876953125Q251.50958251953125 -4.13006591796875 239.95947265625 -4.13006591796875Q212.95947265625 -4.13006591796875 199.02450561523438 -2.775054931640625Q185.08953857421875 -1.4200439453125 174.00958251953125 -0.565032958984375Q162.92962646484375 0.28997802734375 143.34967041015625 0.28997802734375Q123.8997802734375 0.28997802734375 109.2601318359375 -0.71002197265625Q94.6204833984375 -1.71002197265625 80.17059326171875 -3.065032958984375Q65.720703125 -4.4200439453125 46.55010986328125 -4.4200439453125Z" fill="#C9A94A" transform="translate(138.89,130.00) scale(0.06400,-0.06400)"/><path d="M44.23028564453125 -5Q32.39019775390625 -5 25.2601318359375 -1.775054931640625Q18.13006591796875 1.44989013671875 18.13006591796875 7.44989013671875Q18.13006591796875 20.31982421875 47.3603515625 26.31982421875Q83.91046142578125 34.18975830078125 102.02560424804688 48.7398681640625Q120.1407470703125 63.28997802734375 120.1407470703125 97.840087890625V549.5799560546875Q120.1407470703125 584.4200439453125 105.86569213867188 600.4051208496094Q91.59063720703125 616.3901977539062 55.17059326171875 620.840087890625Q39.6204833984375 623.1300659179688 32.635406494140625 628.7750549316406Q25.65032958984375 634.4200439453125 25.65032958984375 641.1300659179688Q25.65032958984375 647.4200439453125 32.925384521484375 650.5Q40.200439453125 653.5799560546875 52.04052734375 653.5799560546875Q80.7803955078125 653.5799560546875 97.81024169921875 653.0Q114.840087890625 652.4200439453125 130.22494506835938 651.4850769042969Q145.60980224609375 650.5501098632812 167.34967041015625 650.5501098632812Q187.799560546875 650.5501098632812 203.5394287109375 652.340087890625Q219.279296875 654.1300659179688 238.80914306640625 655.5650329589844Q258.3389892578125 657 289.36883544921875 657Q406.94879150390625 657 465.898681640625 623.5Q524.8485717773438 590 524.8485717773438 508Q524.8485717773438 475.159912109375 512.4786376953125 448.9349670410156Q500.10870361328125 422.71002197265625 485.04901123046875 409.1002197265625Q469.04901123046875 393.97015380859375 454.4541320800781 385.18017578125Q439.8592529296875 376.39019775390625 416.0191650390625 367.840087890625Q412.0191650390625 366.840087890625 412.0191650390625 363.1950988769531Q412.0191650390625 359.55010986328125 416.0191650390625 357.840087890625Q440.1790771484375 351.4200439453125 465.8389892578125 340.8550109863281Q491.4989013671875 330.28997802734375 514.0138244628906 312.6449890136719Q536.5287475585938 295 550.4637145996094 266.5Q564.398681640625 238 564.398681640625 194Q564.398681640625 138.71002197265625 546.898681640625 106.4200439453125Q529.398681640625 74.13006591796875 505.10870361328125 57.13006591796875Q480.8187255859375 40.13006591796875 459.8187255859375 29.13006591796875Q428.23876953125 13.13006591796875 386.94879150390625 4.565032958984375Q345.6588134765625 -4 288.36883544921875 -4Q268.119384765625 -4 239.50958251953125 -2.0Q210.8997802734375 0 178.28997802734375 0Q154.02984619140625 0 133.56503295898438 -1.0Q113.1002197265625 -2 91.8603515625 -3.5Q70.6204833984375 -5 44.23028564453125 -5ZM297.439208984375 41.92962646484375Q336.799560546875 41.92962646484375 370.5948791503906 61.204681396484375Q404.39019775390625 80.479736328125 424.7803955078125 113.67483520507812Q445.17059326171875 146.86993408203125 445.17059326171875 188.13006591796875Q445.17059326171875 225.68017578125 433.7654724121094 250.16525268554688Q422.3603515625 274.65032958984375 407.2452087402344 289.9253845214844Q392.13006591796875 305.200439453125 379.5799560546875 312.200439453125Q368.31982421875 319.91046142578125 343.0746154785156 328.1204833984375Q317.82940673828125 336.33050537109375 278.04901123046875 336.33050537109375Q251.55859375 336.33050537109375 238.18865966796875 324.9253845214844Q224.8187255859375 313.520263671875 224.8187255859375 301.49041748046875V110.31982421875Q224.8187255859375 71.799560546875 243.72384643554688 56.864593505859375Q262.62896728515625 41.92962646484375 297.439208984375 41.92962646484375ZM268.78887939453125 370.13006591796875Q294.62896728515625 370.13006591796875 322.2142639160156 375.9850769042969Q349.799560546875 381.840087890625 377.02984619140625 398.55010986328125Q386.86993408203125 404.840087890625 402.13006591796875 427.4051208496094Q417.39019775390625 449.97015380859375 417.39019775390625 492.1002197265625Q417.39019775390625 525.7398681640625 406.5351867675781 555.3699340820312Q395.68017578125 585 367.5799560546875 603.5351867675781Q339.479736328125 622.0703735351562 286.46905517578125 622.0703735351562Q250.10870361328125 622.0703735351562 237.46371459960938 611.2153625488281Q224.8187255859375 600.3603515625 224.8187255859375 577.9403076171875V406.55010986328125Q224.8187255859375 382.86993408203125 240.80380249023438 376.5Q256.78887939453125 370.13006591796875 268.78887939453125 370.13006591796875Z" fill="#C9A94A" transform="translate(203.76,130.00) scale(0.06400,-0.06400)"/></g></svg>