<svg xmlns="http://www.w3.org/2000/svg" width="380" height="210" viewBox="0 0 380 210" role="img" aria-label="MathBridge Academy"><path d="M129.1,76 Q190,12 250.9,76" fill="none" stroke="#8E6E1A" stroke-width="2.6" stroke-linecap="round"/><circle cx="129.1" cy="76" r="4" fill="#8E6E1A"/><circle cx="250.9" cy="76" r="4" fill="#8E6E1A"/><path d="M46.55010986328125 -4.4200439453125Q33.840087890625 -4.4200439453125 26.565032958984375 -1.485076904296875Q19.28997802734375 1.44989013671875 19.28997802734375 7.7398681640625Q19.28997802734375 15.31982421875 27.5799560546875 18.884857177734375Q35.86993408203125 22.44989013671875 50.55010986328125 25.7398681640625Q74.97015380859375 31.8997802734375 91.40512084960938 51.18975830078125Q107.840087890625 70.479736328125 112.55010986328125 104.02984619140625Q122.520263671875 178.6610107421875 130.65032958984375 255.23138427734375Q138.7803955078125 331.8017578125 144.71536254882812 401.3614501953125Q150.65032958984375 470.921142578125 152.68017578125 524.520263671875Q152.97015380859375 531.6503295898438 152.97015380859375 540.6503295898438Q152.97015380859375 549.6503295898438 152.2601318359375 557.8102416992188Q151.55010986328125 569.2899780273438 148.24520874023438 578.5149230957031Q144.9403076171875 587.7398681640625 134.07037353515625 595.4498901367188Q118.1002197265625 607.840087890625 102.2601318359375 613.340087890625Q86.4200439453125 618.840087890625 65.7398681640625 622.840087890625Q55.159912109375 625.1300659179688 48.724945068359375 630.4850769042969Q42.28997802734375 635.840087890625 42.28997802734375 643.4200439453125Q42.28997802734375 651.7100219726562 51.21002197265625 653.7899780273438Q60.13006591796875 655.8699340820312 73.97015380859375 655.8699340820312Q85.71002197265625 655.8699340820312 106.78997802734375 654.8699340820312Q127.86993408203125 653.8699340820312 152.7398681640625 652.3049011230469Q177.60980224609375 650.7398681640625 200.42962646484375 649.7398681640625Q223.24945068359375 648.7398681640625 238.1790771484375 648.7398681640625Q245.46905517578125 648.7398681640625 251.04901123046875 644.159912109375Q256.62896728515625 639.5799560546875 258.62896728515625 632.159912109375Q264.4989013671875 613.5799560546875 269.78887939453125 594.5948791503906Q275.078857421875 575.6098022460938 282.36883544921875 556.31982421875L436.30914306640625 173.2984619140625Q439.0191650390625 167.16839599609375 445.4242858886719 166.10336303710938Q451.82940673828125 165.038330078125 454.95947265625 171.16839599609375L632.8209228515625 553.6204833984375Q638.6908569335938 577 643.5458679199219 598.4349670410156Q648.40087890625 619.8699340820312 651.6908569335938 634.7100219726562Q654.9808349609375 647.7100219726562 663.720703125 647.7100219726562H702.3305053710938Q736.3901977539062 648.2899780273438 774.2398681640625 652.4349670410156Q812.0895385742188 656.5799560546875 832.279296875 656.5799560546875Q839.0191650390625 656.5799560546875 846.8741760253906 654.5Q854.7291870117188 652.4200439453125 854.7291870117188 644.840087890625Q854.7291870117188 637.2601318359375 848.7942199707031 633.2601318359375Q842.8592529296875 629.2601318359375 829.59912109375 624.1300659179688Q819.2089233398438 620.2899780273438 805.9637145996094 615.159912109375Q792.718505859375 610.0298461914062 781.6182861328125 605.1897583007812Q765.8187255859375 598.2899780273438 756.9338684082031 586.6151428222656Q748.0490112304688 574.9403076171875 748.6289672851562 556.1109008789062Q749.4989013671875 485.240966796875 752.1438903808594 426.4957580566406Q754.7888793945312 367.75054931640625 757.6438903808594 314.8752746582031Q760.4989013671875 262 764.3539123535156 208.88485717773438Q768.2089233398438 155.76971435546875 771.4989013671875 95.86993408203125Q773.4989013671875 66.60980224609375 792.078857421875 50.3997802734375Q810.6588134765625 34.18975830078125 845.6289672851562 26.8997802734375Q860.3091430664062 23.8997802734375 867.8741760253906 19.8997802734375Q875.439208984375 15.8997802734375 875.439208984375 8.02984619140625Q875.439208984375 1.7398681640625 868.1641540527344 -1.195098876953125Q860.8890991210938 -4.13006591796875 849.3389892578125 -4.13006591796875Q824.078857421875 -4.13006591796875 802.8091430664062 -2.775054931640625Q781.5394287109375 -1.4200439453125 761.479736328125 -0.4200439453125Q741.4200439453125 0.5799560546875 719.2899780273438 0.5799560546875Q699.2899780273438 0.5799560546875 682.020263671875 -0.4200439453125Q664.7505493164062 -1.4200439453125 645.7708129882812 -2.9200439453125Q626.7910766601562 -4.4200439453125 601.240966796875 -4.4200439453125Q589.6908569335938 -4.4200439453125 582.1258239746094 -1.485076904296875Q574.560791015625 1.44989013671875 574.560791015625 7.7398681640625Q574.560791015625 15.31982421875 582.1258239746094 20.10980224609375Q589.6908569335938 24.8997802734375 604.3710327148438 26.8997802734375Q635.9808349609375 32.0596923828125 648.1407470703125 47.3997802734375Q660.3006591796875 62.7398681640625 659.720703125 96.28997802734375Q658.8507690429688 164.81024169921875 657.2057800292969 223.97015380859375Q655.560791015625 283.13006591796875 652.9957580566406 340.78997802734375Q650.4307250976562 398.44989013671875 647.4307250976562 461.68017578125Q646.720703125 471.23028564453125 642.3006591796875 470.73028564453125Q637.880615234375 470.23028564453125 633.4605712890625 461.1002197265625L417.3795166015625 -2.68017578125Q414.2196044921875 -10.86993408203125 406.2046813964844 -10.355010986328125Q398.18975830078125 -9.840087890625 395.60980224609375 -2.55010986328125Q352.840087890625 114.159912109375 305.2953186035156 227.51492309570312Q257.75054931640625 340.86993408203125 205.520263671875 464.6204833984375Q202.9403076171875 471.07037353515625 197.50534057617188 470.200439453125Q192.07037353515625 469.33050537109375 191.07037353515625 462.01068115234375Q184.1002197265625 399.2601318359375 178.63006591796875 340.3251647949219Q173.159912109375 281.39019775390625 170.60980224609375 223.23028564453125Q168.0596923828125 165.07037353515625 168.0596923828125 102.5799560546875Q168.0596923828125 75.28997802734375 185.34967041015625 54.674835205078125Q202.6396484375 34.0596923828125 236.24945068359375 26.8997802734375Q250.92962646484375 24.18975830078125 259.2196044921875 20.044769287109375Q267.50958251953125 15.8997802734375 267.50958251953125 8.02984619140625Q267.50958251953125 1.7398681640625 259.50958251953125 -1.195098876953125Q251.50958251953125 -4.13006591796875 239.95947265625 -4.13006591796875Q212.95947265625 -4.13006591796875 199.02450561523438 -2.775054931640625Q185.08953857421875 -1.4200439453125 174.00958251953125 -0.565032958984375Q162.92962646484375 0.28997802734375 143.34967041015625 0.28997802734375Q123.8997802734375 0.28997802734375 109.2601318359375 -0.71002197265625Q94.6204833984375 -1.71002197265625 80.17059326171875 -3.065032958984375Q65.720703125 -4.4200439453125 46.55010986328125 -4.4200439453125Z" fill="#0F1B2D" transform="translate(138.89,130.00) scale(0.06400,-0.06400)"/><path d="M44.23028564453125 -5Q32.39019775390625 -5 25.2601318359375 -1.775054931640625Q18.13006591796875 1.44989013671875 18.13006591796875 7.44989013671875Q18.13006591796875 20.31982421875 47.3603515625 26.31982421875Q83.91046142578125 34.18975830078125 102.02560424804688 48.7398681640625Q120.1407470703125 63.28997802734375 120.1407470703125 97.840087890625V549.5799560546875Q120.1407470703125 584.4200439453125 105.86569213867188 600.4051208496094Q91.59063720703125 616.3901977539062 55.17059326171875 620.840087890625Q39.6204833984375 623.1300659179688 32.635406494140625 628.7750549316406Q25.65032958984375 634.4200439453125 25.65032958984375 641.1300659179688Q25.65032958984375 647.4200439453125 32.925384521484375 650.5Q40.200439453125 653.5799560546875 52.04052734375 653.5799560546875Q80.7803955078125 653.5799560546875 97.81024169921875 653.0Q114.840087890625 652.4200439453125 130.22494506835938 651.4850769042969Q145.60980224609375 650.5501098632812 167.34967041015625 650.5501098632812Q187.799560546875 650.5501098632812 203.5394287109375 652.340087890625Q219.279296875 654.1300659179688 238.80914306640625 655.5650329589844Q258.3389892578125 657 289.36883544921875 657Q406.94879150390625 657 465.898681640625 623.5Q524.8485717773438 590 524.8485717773438 508Q524.8485717773438 475.159912109375 512.4786376953125 448.9349670410156Q500.10870361328125 422.71002197265625 485.04901123046875 409.1002197265625Q469.04901123046875 393.97015380859375 454.4541320800781 385.18017578125Q439.8592529296875 376.39019775390625 416.0191650390625 367.840087890625Q412.0191650390625 366.840087890625 412.0191650390625 363.1950988769531Q412.0191650390625 359.55010986328125 416.0191650390625 357.840087890625Q440.1790771484375 351.4200439453125 465.8389892578125 340.8550109863281Q491.4989013671875 330.28997802734375 514.0138244628906 312.6449890136719Q536.5287475585938 295 550.4637145996094 266.5Q564.398681640625 238 564.398681640625 194Q564.398681640625 138.71002197265625 546.898681640625 106.4200439453125Q529.398681640625 74.13006591796875 505.10870361328125 57.13006591796875Q480.8187255859375 40.13006591796875 459.8187255859375 29.13006591796875Q428.23876953125 13.13006591796875 386.94879150390625 4.565032958984375Q345.6588134765625 -4 288.36883544921875 -4Q268.119384765625 -4 239.50958251953125 -2.0Q210.8997802734375 0 178.28997802734375 0Q154.02984619140625 0 133.56503295898438 -1.0Q113.1002197265625 -2 91.8603515625 -3.5Q70.6204833984375 -5 44.23028564453125 -5ZM297.439208984375 41.92962646484375Q336.799560546875 41.92962646484375 370.5948791503906 61.204681396484375Q404.39019775390625 80.479736328125 424.7803955078125 113.67483520507812Q445.17059326171875 146.86993408203125 445.17059326171875 188.13006591796875Q445.17059326171875 225.68017578125 433.7654724121094 250.16525268554688Q422.3603515625 274.65032958984375 407.2452087402344 289.9253845214844Q392.13006591796875 305.200439453125 379.5799560546875 312.200439453125Q368.31982421875 319.91046142578125 343.0746154785156 328.1204833984375Q317.82940673828125 336.33050537109375 278.04901123046875 336.33050537109375Q251.55859375 336.33050537109375 238.18865966796875 324.9253845214844Q224.8187255859375 313.520263671875 224.8187255859375 301.49041748046875V110.31982421875Q224.8187255859375 71.799560546875 243.72384643554688 56.864593505859375Q262.62896728515625 41.92962646484375 297.439208984375 41.92962646484375ZM268.78887939453125 370.13006591796875Q294.62896728515625 370.13006591796875 322.2142639160156 375.9850769042969Q349.799560546875 381.840087890625 377.02984619140625 398.55010986328125Q386.86993408203125 404.840087890625 402.13006591796875 427.4051208496094Q417.39019775390625 449.97015380859375 417.39019775390625 492.1002197265625Q417.39019775390625 525.7398681640625 406.5351867675781 555.3699340820312Q395.68017578125 585 367.5799560546875 603.5351867675781Q339.479736328125 622.0703735351562 286.46905517578125 622.0703735351562Q250.10870361328125 622.0703735351562 237.46371459960938 611.2153625488281Q224.8187255859375 600.3603515625 224.8187255859375 577.9403076171875V406.55010986328125Q224.8187255859375 382.86993408203125 240.80380249023438 376.5Q256.78887939453125 370.13006591796875 268.78887939453125 370.13006591796875Z" fill="#0F1B2D" transform="translate(203.76,130.00) scale(0.06400,-0.06400)"/><path d="M46.55010986328125 -4.4200439453125Q33.840087890625 -4.4200439453125 26.565032958984375 -1.485076904296875Q19.28997802734375 1.44989013671875 19.28997802734375 7.7398681640625Q19.28997802734375 15.31982421875 27.5799560546875 18.884857177734375Q35.86993408203125 22.44989013671875 50.55010986328125 25.7398681640625Q74.97015380859375 31.8997802734375 91.40512084960938 51.18975830078125Q107.840087890625 70.479736328125 112.55010986328125 104.02984619140625Q122.520263671875 178.6610107421875 130.65032958984375 255.23138427734375Q138.7803955078125 331.8017578125 144.71536254882812 401.3614501953125Q150.65032958984375 470.921142578125 152.68017578125 524.520263671875Q152.97015380859375 531.6503295898438 152.97015380859375 540.6503295898438Q152.97015380859375 549.6503295898438 152.2601318359375 557.8102416992188Q151.55010986328125 569.2899780273438 148.24520874023438 578.5149230957031Q144.9403076171875 587.7398681640625 134.07037353515625 595.4498901367188Q118.1002197265625 607.840087890625 102.2601318359375 613.340087890625Q86.4200439453125 618.840087890625 65.7398681640625 622.840087890625Q55.159912109375 625.1300659179688 48.724945068359375 630.4850769042969Q42.28997802734375 635.840087890625 42.28997802734375 643.4200439453125Q42.28997802734375 651.7100219726562 51.21002197265625 653.7899780273438Q60.13006591796875 655.8699340820312 73.97015380859375 655.8699340820312Q85.71002197265625 655.8699340820312 106.78997802734375 654.8699340820312Q127.86993408203125 653.8699340820312 152.7398681640625 652.3049011230469Q177.60980224609375 650.7398681640625 200.42962646484375 649.7398681640625Q223.24945068359375 648.7398681640625 238.1790771484375 648.7398681640625Q245.46905517578125 648.7398681640625 251.04901123046875 644.159912109375Q256.62896728515625 639.5799560546875 258.62896728515625 632.159912109375Q264.4989013671875 613.5799560546875 269.78887939453125 594.5948791503906Q275.078857421875 575.6098022460938 282.36883544921875 556.31982421875L436.30914306640625 173.2984619140625Q439.0191650390625 167.16839599609375 445.4242858886719 166.10336303710938Q451.82940673828125 165.038330078125 454.95947265625 171.16839599609375L632.8209228515625 553.6204833984375Q638.6908569335938 577 643.5458679199219 598.4349670410156Q648.40087890625 619.8699340820312 651.6908569335938 634.7100219726562Q654.9808349609375 647.7100219726562 663.720703125 647.7100219726562H702.3305053710938Q736.3901977539062 648.2899780273438 774.2398681640625 652.4349670410156Q812.0895385742188 656.5799560546875 832.279296875 656.5799560546875Q839.0191650390625 656.5799560546875 846.8741760253906 654.5Q854.7291870117188 652.4200439453125 854.7291870117188 644.840087890625Q854.7291870117188 637.2601318359375 848.7942199707031 633.2601318359375Q842.8592529296875 629.2601318359375 829.59912109375 624.1300659179688Q819.2089233398438 620.2899780273438 805.9637145996094 615.159912109375Q792.718505859375 610.0298461914062 781.6182861328125 605.1897583007812Q765.8187255859375 598.2899780273438 756.9338684082031 586.6151428222656Q748.0490112304688 574.9403076171875 748.6289672851562 556.1109008789062Q749.4989013671875 485.240966796875 752.1438903808594 426.4957580566406Q754.7888793945312 367.75054931640625 757.6438903808594 314.8752746582031Q760.4989013671875 262 764.3539123535156 208.88485717773438Q768.2089233398438 155.76971435546875 771.4989013671875 95.86993408203125Q773.4989013671875 66.60980224609375 792.078857421875 50.3997802734375Q810.6588134765625 34.18975830078125 845.6289672851562 26.8997802734375Q860.3091430664062 23.8997802734375 867.8741760253906 19.8997802734375Q875.439208984375 15.8997802734375 875.439208984375 8.02984619140625Q875.439208984375 1.7398681640625 868.1641540527344 -1.195098876953125Q860.8890991210938 -4.13006591796875 849.3389892578125 -4.13006591796875Q824.078857421875 -4.13006591796875 802.8091430664062 -2.775054931640625Q781.5394287109375 -1.4200439453125 761.479736328125 -0.4200439453125Q741.4200439453125 0.5799560546875 719.2899780273438 0.5799560546875Q699.2899780273438 0.5799560546875 682.020263671875 -0.4200439453125Q664.7505493164062 -1.4200439453125 645.7708129882812 -2.9200439453125Q626.7910766601562 -4.4200439453125 601.240966796875 -4.4200439453125Q589.6908569335938 -4.4200439453125 582.1258239746094 -1.485076904296875Q574.560791015625 1.44989013671875 574.560791015625 7.7398681640625Q574.560791015625 15.31982421875 582.1258239746094 20.10980224609375Q589.6908569335938 24.8997802734375 604.3710327148438 26.8997802734375Q635.9808349609375 32.0596923828125 648.1407470703125 47.3997802734375Q660.3006591796875 62.7398681640625 659.720703125 96.28997802734375Q658.8507690429688 164.81024169921875 657.2057800292969 223.97015380859375Q655.560791015625 283.13006591796875 652.9957580566406 340.78997802734375Q650.4307250976562 398.44989013671875 647.4307250976562 461.68017578125Q646.720703125 471.23028564453125 642.3006591796875 470.73028564453125Q637.880615234375 470.23028564453125 633.4605712890625 461.1002197265625L417.3795166015625 -2.68017578125Q414.2196044921875 -10.86993408203125 406.2046813964844 -10.355010986328125Q398.18975830078125 -9.840087890625 395.60980224609375 -2.55010986328125Q352.840087890625 114.159912109375 305.2953186035156 227.51492309570312Q257.75054931640625 340.86993408203125 205.520263671875 464.6204833984375Q202.9403076171875 471.07037353515625 197.50534057617188 470.200439453125Q192.07037353515625 469.33050537109375 191.07037353515625 462.01068115234375Q184.1002197265625 399.2601318359375 178.63006591796875 340.3251647949219Q173.159912109375 281.39019775390625 170.60980224609375 223.23028564453125Q168.0596923828125 165.07037353515625 168.0596923828125 102.5799560546875Q168.0596923828125 75.28997802734375 185.34967041015625 54.674835205078125Q202.6396484375 34.0596923828125 236.24945068359375 26.8997802734375Q250.92962646484375 24.18975830078125 259.2196044921875 20.044769287109375Q267.50958251953125 15.8997802734375 267.50958251953125 8.02984619140625Q267.50958251953125 1.7398681640625 259.50958251953125 -1.195098876953125Q251.50958251953125 -4.13006591796875 239.95947265625 -4.13006591796875Q212.95947265625 -4.13006591796875 199.02450561523438 -2.775054931640625Q185.08953857421875 -1.4200439453125 174.00958251953125 -0.565032958984375Q162.92962646484375 0.28997802734375 143.34967041015625 0.28997802734375Q123.8997802734375 0.28997802734375 109.2601318359375 -0.71002197265625Q94.6204833984375 -1.71002197265625 80.17059326171875 -3.065032958984375Q65.720703125 -4.4200439453125 46.55010986328125 -4.4200439453125Z" fill="#0F1B2D" transform="translate(113.31,171.00) scale(0.03200,-0.03200)"/><path d="M121.34967041015625 -14Q100.159912109375 -14 80.06503295898438 -0.434967041015625Q59.97015380859375 13.13006591796875 47.035186767578125 33.565032958984375Q34.1002197265625 54 34.1002197265625 74.31982421875Q34.1002197265625 107.18975830078125 52.695098876953125 126.92962646484375Q71.28997802734375 146.66949462890625 110.02984619140625 162.82940673828125L207.39019775390625 203.66949462890625Q227.39019775390625 211.95947265625 231.32516479492188 218.39443969726562Q235.2601318359375 224.82940673828125 235.97015380859375 244.5394287109375L237.68017578125 305.92962646484375Q238.68017578125 332.799560546875 224.77505493164062 350.7846374511719Q210.86993408203125 368.76971435546875 184.18975830078125 368.76971435546875Q170.0596923828125 368.76971435546875 155.6396484375 363.6247253417969Q141.2196044921875 358.479736328125 132.3795166015625 350.76971435546875Q127.24945068359375 346.76971435546875 125.5394287109375 339.6396484375Q123.82940673828125 332.50958251953125 123.82940673828125 324.66949462890625Q123.82940673828125 320.08953857421875 124.47439575195312 313.7846374511719Q125.119384765625 307.479736328125 125.119384765625 302.8997802734375Q125.119384765625 297.31982421875 111.31448364257812 288.52984619140625Q97.50958251953125 279.7398681640625 80.12472534179688 272.94989013671875Q62.7398681640625 266.159912109375 51 266.159912109375Q45.13006591796875 266.159912109375 41.405120849609375 269.81982421875Q37.68017578125 273.479736328125 37.68017578125 279.2196044921875Q37.68017578125 295.2196044921875 48.325164794921875 312.7046813964844Q58.97015380859375 330.18975830078125 80 347.6396484375Q104.159912109375 368.92962646484375 132.60980224609375 385.2196044921875Q161.0596923828125 401.50958251953125 188.50958251953125 410.9445495605469Q215.95947265625 420.3795166015625 236.5394287109375 420.3795166015625Q278.62896728515625 420.3795166015625 305.1737365722656 391.68975830078125Q331.718505859375 363 330.42852783203125 318.33050537109375L325.42852783203125 91.66949462890625Q324.42852783203125 70.08953857421875 334.34857177734375 56.074615478515625Q344.26861572265625 42.0596923828125 359.398681640625 42.0596923828125Q382.36883544921875 42.0596923828125 394.94879150390625 53.6396484375Q399.36883544921875 58.0596923828125 402.36883544921875 58.0596923828125Q407.36883544921875 58.0596923828125 410.5138244628906 54.914703369140625Q413.6588134765625 51.76971435546875 413.6588134765625 46.76971435546875Q413.6588134765625 35.479736328125 400.04901123046875 21.86993408203125Q383.1790771484375 5 363.6641540527344 -4.5Q344.14923095703125 -14 325.82940673828125 -14Q276.34967041015625 -14 245.86993408203125 39.7398681640625H243.159912109375Q210.159912109375 11.5799560546875 181.31982421875 -1.21002197265625Q152.479736328125 -14 121.34967041015625 -14ZM172.6993408203125 40.08953857421875Q189.50958251953125 40.08953857421875 201.18975830078125 45.574615478515625Q212.86993408203125 51.0596923828125 222.13006591796875 60.8997802734375Q226.55010986328125 65.60980224609375 229.47015380859375 73.38485717773438Q232.39019775390625 81.159912109375 233.1002197265625 96.68017578125L235.39019775390625 153.799560546875Q236.1002197265625 164.2196044921875 233.81024169921875 168.49465942382812Q231.520263671875 172.76971435546875 226.1002197265625 172.76971435546875Q224.1002197265625 172.76971435546875 219.82516479492188 171.91470336914062Q215.55010986328125 171.0596923828125 209 168.34967041015625Q164.40936279296875 151.08953857421875 146.22918701171875 132.619384765625Q128.04901123046875 114.14923095703125 128.04901123046875 91.92962646484375Q128.04901123046875 65.0596923828125 142.38909912109375 52.574615478515625Q156.72918701171875 40.08953857421875 172.6993408203125 40.08953857421875Z" fill="#0F1B2D" transform="translate(142.34,171.00) scale(0.03200,-0.03200)"/><path d="M199.72918701171875 -14Q144.6396484375 -14 115.25479125976562 17.159912109375Q85.86993408203125 48.31982421875 85.86993408203125 108.18975830078125V339.60980224609375Q85.86993408203125 347.8997802734375 79.5799560546875 351.5447692871094Q73.28997802734375 355.18975830078125 54.159912109375 355.479736328125H45.55010986328125Q39.97015380859375 355.479736328125 36.035186767578125 363.7196044921875Q32.1002197265625 371.95947265625 32.1002197265625 379.82940673828125Q32.1002197265625 381.82940673828125 34.520263671875 385.5394287109375Q36.9403076171875 389.24945068359375 38.81024169921875 390.24945068359375Q60.2601318359375 402.50958251953125 80.67483520507812 418.24945068359375Q101.08953857421875 433.98931884765625 118.79421997070312 450.09912109375Q136.4989013671875 466.20892333984375 147.8187255859375 478.078857421875Q153.68865966796875 483.36883544921875 157.76861572265625 487.0138244628906Q161.84857177734375 490.6588134765625 167.718505859375 490.6588134765625Q174.16839599609375 490.6588134765625 178.52340698242188 488.078857421875Q182.87841796875 485.4989013671875 181.58843994140625 476.46905517578125L176.00848388671875 426.5394287109375Q175.00848388671875 414.95947265625 181.2984619140625 410.8144836425781Q187.58843994140625 406.66949462890625 200.2984619140625 406.66949462890625H316.038330078125Q319.4583740234375 406.66949462890625 322.4583740234375 400.0245056152344Q325.4583740234375 393.3795166015625 325.4583740234375 385.5394287109375Q325.4583740234375 374.50958251953125 322.16839599609375 364.5596923828125Q318.87841796875 354.60980224609375 314.58843994140625 354.60980224609375H217.6182861328125Q193.48822021484375 354.60980224609375 185.55325317382812 350.02984619140625Q177.6182861328125 345.44989013671875 177.6182861328125 327.479736328125V133.3795166015625Q177.6182861328125 91.34967041015625 194.76327514648438 68.49465942382812Q211.90826416015625 45.6396484375 243.038330078125 45.6396484375Q271.74835205078125 45.6396484375 286.87841796875 50.574615478515625Q302.00848388671875 55.50958251953125 314.42852783203125 63.0596923828125Q317.00848388671875 65.0596923828125 319.2984619140625 65.0596923828125Q323.58843994140625 65.0596923828125 325.5234069824219 59.979736328125Q327.4583740234375 54.8997802734375 327.4583740234375 48.7398681640625Q327.4583740234375 43.44989013671875 309.3634948730469 28.014923095703125Q291.26861572265625 12.5799560546875 262.3038024902344 -0.71002197265625Q233.3389892578125 -14 199.72918701171875 -14Z" fill="#0F1B2D" transform="translate(155.55,171.00) scale(0.03200,-0.03200)"/><path d="M38.13006591796875 -3Q18.13006591796875 -3 18.13006591796875 9.159912109375Q18.13006591796875 19.31982421875 41.13006591796875 26.60980224609375Q56.13006591796875 31.60980224609375 68.90512084960938 38.884857177734375Q81.68017578125 46.159912109375 82.39019775390625 66.7398681640625V560.200439453125Q82.39019775390625 587.200439453125 74.11514282226562 607.5554504394531Q65.840087890625 627.9104614257812 40.13006591796875 632.200439453125Q30.55010986328125 634.200439453125 30.55010986328125 646.7803955078125Q30.55010986328125 656.9403076171875 39.13006591796875 659.6503295898438Q56.31982421875 664.6503295898438 79.44454956054688 671.9552307128906Q102.56927490234375 679.2601318359375 126.03408813476562 687.7750549316406Q149.4989013671875 696.2899780273438 165.20892333984375 702.7100219726562Q170.6588134765625 705 173.52874755859375 705Q177.68865966796875 705 179.68865966796875 702.4200439453125Q181.68865966796875 699.840087890625 181.68865966796875 696.2601318359375Q181.68865966796875 690.5501098632812 179.62362670898438 680.1300659179688Q177.55859375 669.7100219726562 175.84857177734375 647.4946594238281Q174.1385498046875 625.279296875 173.84857177734375 584.038330078125V389.7398681640625Q173.84857177734375 375.76971435546875 175.20358276367188 368.479736328125Q176.55859375 361.18975830078125 180.26861572265625 355.6396484375Q195.9786376953125 367.92962646484375 218.60870361328125 382.8645935058594Q241.23876953125 397.799560546875 269.8038024902344 409.08953857421875Q298.36883544921875 420.3795166015625 330.23876953125 420.3795166015625Q380.68865966796875 420.3795166015625 414.4935607910156 382.16949462890625Q448.2984619140625 343.95947265625 448.2984619140625 282.34967041015625V69.44989013671875Q448.2984619140625 49.159912109375 460.5735168457031 40.384857177734375Q472.84857177734375 31.60980224609375 487.55859375 26.60980224609375Q498.26861572265625 23.31982421875 504.1236267089844 19.52984619140625Q509.9786376953125 15.7398681640625 509.9786376953125 9.159912109375Q509.9786376953125 -3 489.398681640625 -3Q467.94879150390625 -3 455.8539123535156 -1.5Q443.759033203125 0 432.80914306640625 1.0Q421.8592529296875 2 402.6993408203125 2Q383.95947265625 2 373.2345275878906 1.0Q362.50958251953125 0 351.1396484375 -1.5Q339.76971435546875 -3 318.31982421875 -3Q296.86993408203125 -3 296.86993408203125 9.44989013671875Q296.86993408203125 16.7398681640625 303.0149230957031 19.964813232421875Q309.159912109375 23.18975830078125 319 26.60980224609375Q333.4200439453125 31.31982421875 344.9850769042969 40.384857177734375Q356.55010986328125 49.44989013671875 356.55010986328125 70.02984619140625V271.71002197265625Q356.55010986328125 295.55010986328125 343.9349670410156 315.0351867675781Q331.31982421875 334.520263671875 312.6396484375 345.9403076171875Q293.95947265625 357.3603515625 273.6993408203125 357.3603515625Q256.14923095703125 357.3603515625 233.61404418945312 352.0053405761719Q211.078857421875 346.65032958984375 196.20892333984375 335.3603515625Q183.10870361328125 324.97015380859375 178.62362670898438 313.28997802734375Q174.1385498046875 301.60980224609375 174.1385498046875 276.119384765625V67.31982421875Q174.84857177734375 47.31982421875 185.76861572265625 39.60980224609375Q196.68865966796875 31.8997802734375 211.10870361328125 26.8997802734375Q221.23876953125 23.8997802734375 226.88375854492188 19.964813232421875Q232.52874755859375 16.02984619140625 232.52874755859375 9.44989013671875Q232.52874755859375 -3 213.398681640625 -3Q193.398681640625 -3 180.78887939453125 -1.5Q168.1790771484375 0 156.71426391601562 1.0Q145.24945068359375 2 127.24945068359375 2Q110.24945068359375 2 97.7196044921875 1.0Q85.18975830078125 0 71.659912109375 -1.5Q58.13006591796875 -3 38.13006591796875 -3Z" fill="#0F1B2D" transform="translate(166.27,171.00) scale(0.03200,-0.03200)"/><path d="M44.23028564453125 -5Q32.39019775390625 -5 25.2601318359375 -1.775054931640625Q18.13006591796875 1.44989013671875 18.13006591796875 7.44989013671875Q18.13006591796875 20.31982421875 47.3603515625 26.31982421875Q83.91046142578125 34.18975830078125 102.02560424804688 48.7398681640625Q120.1407470703125 63.28997802734375 120.1407470703125 97.840087890625V549.5799560546875Q120.1407470703125 584.4200439453125 105.86569213867188 600.4051208496094Q91.59063720703125 616.3901977539062 55.17059326171875 620.840087890625Q39.6204833984375 623.1300659179688 32.635406494140625 628.7750549316406Q25.65032958984375 634.4200439453125 25.65032958984375 641.1300659179688Q25.65032958984375 647.4200439453125 32.925384521484375 650.5Q40.200439453125 653.5799560546875 52.04052734375 653.5799560546875Q80.7803955078125 653.5799560546875 97.81024169921875 653.0Q114.840087890625 652.4200439453125 130.22494506835938 651.4850769042969Q145.60980224609375 650.5501098632812 167.34967041015625 650.5501098632812Q187.799560546875 650.5501098632812 203.5394287109375 652.340087890625Q219.279296875 654.1300659179688 238.80914306640625 655.5650329589844Q258.3389892578125 657 289.36883544921875 657Q406.94879150390625 657 465.898681640625 623.5Q524.8485717773438 590 524.8485717773438 508Q524.8485717773438 475.159912109375 512.4786376953125 448.9349670410156Q500.10870361328125 422.71002197265625 485.04901123046875 409.1002197265625Q469.04901123046875 393.97015380859375 454.4541320800781 385.18017578125Q439.8592529296875 376.39019775390625 416.0191650390625 367.840087890625Q412.0191650390625 366.840087890625 412.0191650390625 363.1950988769531Q412.0191650390625 359.55010986328125 416.0191650390625 357.840087890625Q440.1790771484375 351.4200439453125 465.8389892578125 340.8550109863281Q491.4989013671875 330.28997802734375 514.0138244628906 312.6449890136719Q536.5287475585938 295 550.4637145996094 266.5Q564.398681640625 238 564.398681640625 194Q564.398681640625 138.71002197265625 546.898681640625 106.4200439453125Q529.398681640625 74.13006591796875 505.10870361328125 57.13006591796875Q480.8187255859375 40.13006591796875 459.8187255859375 29.13006591796875Q428.23876953125 13.13006591796875 386.94879150390625 4.565032958984375Q345.6588134765625 -4 288.36883544921875 -4Q268.119384765625 -4 239.50958251953125 -2.0Q210.8997802734375 0 178.28997802734375 0Q154.02984619140625 0 133.56503295898438 -1.0Q113.1002197265625 -2 91.8603515625 -3.5Q70.6204833984375 -5 44.23028564453125 -5ZM297.439208984375 41.92962646484375Q336.799560546875 41.92962646484375 370.5948791503906 61.204681396484375Q404.39019775390625 80.479736328125 424.7803955078125 113.67483520507812Q445.17059326171875 146.86993408203125 445.17059326171875 188.13006591796875Q445.17059326171875 225.68017578125 433.7654724121094 250.16525268554688Q422.3603515625 274.65032958984375 407.2452087402344 289.9253845214844Q392.13006591796875 305.200439453125 379.5799560546875 312.200439453125Q368.31982421875 319.91046142578125 343.0746154785156 328.1204833984375Q317.82940673828125 336.33050537109375 278.04901123046875 336.33050537109375Q251.55859375 336.33050537109375 238.18865966796875 324.9253845214844Q224.8187255859375 313.520263671875 224.8187255859375 301.49041748046875V110.31982421875Q224.8187255859375 71.799560546875 243.72384643554688 56.864593505859375Q262.62896728515625 41.92962646484375 297.439208984375 41.92962646484375ZM268.78887939453125 370.13006591796875Q294.62896728515625 370.13006591796875 322.2142639160156 375.9850769042969Q349.799560546875 381.840087890625 377.02984619140625 398.55010986328125Q386.86993408203125 404.840087890625 402.13006591796875 427.4051208496094Q417.39019775390625 449.97015380859375 417.39019775390625 492.1002197265625Q417.39019775390625 525.7398681640625 406.5351867675781 555.3699340820312Q395.68017578125 585 367.5799560546875 603.5351867675781Q339.479736328125 622.0703735351562 286.46905517578125 622.0703735351562Q250.10870361328125 622.0703735351562 237.46371459960938 611.2153625488281Q224.8187255859375 600.3603515625 224.8187255859375 577.9403076171875V406.55010986328125Q224.8187255859375 382.86993408203125 240.80380249023438 376.5Q256.78887939453125 370.13006591796875 268.78887939453125 370.13006591796875Z" fill="#0F1B2D" transform="translate(183.26,171.00) scale(0.03200,-0.03200)"/><path d="M46.39019775390625 -3Q37.2601318359375 -3 31.825164794921875 -0.065032958984375Q26.39019775390625 2.86993408203125 26.39019775390625 9.159912109375Q26.39019775390625 17.159912109375 32.535186767578125 20.384857177734375Q38.68017578125 23.60980224609375 49.39019775390625 26.60980224609375Q69.55010986328125 32.18975830078125 78.32516479492188 41.10980224609375Q87.1002197265625 50.02984619140625 87.1002197265625 64.60980224609375V284.82940673828125Q87.1002197265625 309.799560546875 79.97015380859375 327.479736328125Q72.840087890625 345.159912109375 50.159912109375 350.159912109375Q45.86993408203125 351.44989013671875 42.434967041015625 355.3049011230469Q39 359.159912109375 39 364.8997802734375Q39 376.34967041015625 49.159912109375 378.6396484375Q77.18975830078125 386.6396484375 109.16949462890625 401.26971435546875Q141.14923095703125 415.8997802734375 161.20892333984375 427.0596923828125Q166.9189453125 430.76971435546875 171.72384643554688 432.9946594238281Q176.52874755859375 435.2196044921875 179.10870361328125 435.2196044921875Q185.55859375 435.2196044921875 185.55859375 426.76971435546875Q185.55859375 423.18975830078125 185.05859375 410.02984619140625Q184.55859375 396.86993408203125 183.91360473632812 380.7249450683594Q183.26861572265625 364.5799560546875 182.55859375 350.31982421875Q182.55859375 346 185.1385498046875 346Q200.84857177734375 366.28997802734375 220.6385498046875 383.02984619140625Q240.42852783203125 399.76971435546875 262.08843994140625 410.2196044921875Q283.74835205078125 420.66949462890625 304.48822021484375 420.66949462890625Q330.12786865234375 420.66949462890625 344.0628356933594 410.2196044921875Q357.997802734375 399.76971435546875 357.997802734375 383.44989013671875Q357.997802734375 371.71002197265625 351.4828796386719 357.5351867675781Q344.96795654296875 343.3603515625 334.51806640625 332.91046142578125Q324.06817626953125 322.4605712890625 312.32830810546875 322.4605712890625Q305.16839599609375 322.4605712890625 297.1534729003906 325.6855163574219Q289.1385498046875 328.91046142578125 280.26861572265625 333.200439453125Q271.68865966796875 336.7803955078125 263.10870361328125 340.2153625488281Q254.52874755859375 343.65032958984375 246.52874755859375 343.65032958984375Q221.94879150390625 343.65032958984375 200.75369262695312 325.9253845214844Q179.55859375 308.200439453125 179.55859375 255.880615234375V67.799560546875Q179.55859375 52.18975830078125 192.9786376953125 43.254791259765625Q206.398681640625 34.31982421875 232.26861572265625 26.31982421875Q243.26861572265625 23.31982421875 249.12362670898438 19.884857177734375Q254.9786376953125 16.44989013671875 254.9786376953125 9.159912109375Q254.9786376953125 -3 236.1385498046875 -3Q206.1385498046875 -3 184.69400024414062 -0.5Q163.24945068359375 2 137.24945068359375 2Q120.24945068359375 2 107.28463745117188 1.0Q94.31982421875 0 80.35501098632812 -1.5Q66.39019775390625 -3 46.39019775390625 -3Z" fill="#0F1B2D" transform="translate(202.50,171.00) scale(0.03200,-0.03200)"/><path d="M41.68017578125 -3Q33.55010986328125 -3 28.195098876953125 -0.065032958984375Q22.840087890625 2.86993408203125 22.840087890625 8.86993408203125Q22.840087890625 16.86993408203125 29.47015380859375 20.44989013671875Q36.1002197265625 24.02984619140625 44.1002197265625 26.02984619140625Q66.840087890625 31.60980224609375 77.69509887695312 38.964813232421875Q88.55010986328125 46.31982421875 88.55010986328125 63.7398681640625V280.44989013671875Q88.55010986328125 310.0596923828125 78.7601318359375 328.5948791503906Q68.97015380859375 347.13006591796875 44.13006591796875 350.840087890625Q38.840087890625 351.840087890625 36.195098876953125 355.5650329589844Q33.55010986328125 359.28997802734375 33.55010986328125 365.5799560546875Q33.55010986328125 378.02984619140625 43.4200439453125 379.31982421875Q87.479736328125 388.8997802734375 118.6993408203125 405.26971435546875Q149.9189453125 421.6396484375 165.8187255859375 431.6396484375Q177.42852783203125 438.92962646484375 182.1385498046875 438.92962646484375Q190.4583740234375 438.92962646484375 190.4583740234375 431.31982421875Q190.16839599609375 420.13006591796875 187.37841796875 396.05010986328125Q184.58843994140625 371.97015380859375 182.44345092773438 343.9051208496094Q180.2984619140625 315.840087890625 180.2984619140625 292.2601318359375V64.02984619140625Q180.2984619140625 48.18975830078125 191.36349487304688 40.18975830078125Q202.42852783203125 32.18975830078125 224.74835205078125 26.02984619140625Q232.74835205078125 23.7398681640625 239.52340698242188 20.44989013671875Q246.2984619140625 17.159912109375 246.2984619140625 9.159912109375Q246.2984619140625 -2.71002197265625 227.74835205078125 -2.71002197265625Q208.74835205078125 -2.71002197265625 194.05859375 -1.355010986328125Q179.36883544921875 0 165.6790771484375 1.0Q151.98931884765625 2 133.98931884765625 2Q116.98931884765625 2 103.23452758789062 1.0Q89.479736328125 0 75.5799560546875 -1.5Q61.68017578125 -3 41.68017578125 -3ZM132.119384765625 507.880615234375Q107.34967041015625 507.880615234375 89.80490112304688 525.4253845214844Q72.2601318359375 542.9701538085938 72.2601318359375 567.7398681640625Q72.2601318359375 594.0895385742188 89.80490112304688 611.6343078613281Q107.34967041015625 629.1790771484375 132.119384765625 629.1790771484375Q158.46905517578125 629.1790771484375 176.01382446289062 611.6343078613281Q193.55859375 594.0895385742188 193.55859375 567.7398681640625Q193.55859375 542.9701538085938 176.01382446289062 525.4253845214844Q158.46905517578125 507.880615234375 132.119384765625 507.880615234375Z" fill="#0F1B2D" transform="translate(214.08,171.00) scale(0.03200,-0.03200)"/><path d="M357.28997802734375 -19Q355 -19 350.0650329589844 -14.13006591796875Q345.13006591796875 -9.2601318359375 345.13006591796875 -6.68017578125Q346 5.34967041015625 348.0650329589844 22.10980224609375Q350.13006591796875 38.86993408203125 350.4200439453125 51V57Q333.39019775390625 31.1002197265625 299.520263671875 8.55010986328125Q265.65032958984375 -14 218.840087890625 -14Q162.4200439453125 -14 120.19509887695312 15.275054931640625Q77.97015380859375 44.55010986328125 54.455230712890625 91.840087890625Q30.9403076171875 139.13006591796875 30.9403076171875 191.7398681640625Q30.9403076171875 253.2196044921875 59.1002197265625 304.9445495605469Q87.2601318359375 356.66949462890625 139.06503295898438 388.08953857421875Q190.86993408203125 419.50958251953125 261.159912109375 419.50958251953125Q279.4200439453125 419.50958251953125 298.47015380859375 416.4445495605469Q317.520263671875 413.3795166015625 329.39019775390625 409.3795166015625Q340.13006591796875 406.3795166015625 342.39019775390625 406.3795166015625Q348.520263671875 406.3795166015625 348.520263671875 426.60980224609375V560.200439453125Q348.520263671875 599.4605712890625 336.97015380859375 614.1855163574219Q325.4200439453125 628.9104614257812 302.28997802734375 632.9104614257812Q292.4200439453125 635.200439453125 292.4200439453125 646.7803955078125Q292.4200439453125 656.9403076171875 301.28997802734375 659.6503295898438Q342.97015380859375 669.7803955078125 373.0447692871094 680.6503295898438Q403.119384765625 691.520263671875 421.1790771484375 699.2601318359375Q428.36883544921875 702.7100219726562 432.3038024902344 703.5Q436.23876953125 704.2899780273438 437.94879150390625 704.2899780273438Q445.68865966796875 704.2899780273438 446.398681640625 696.2601318359375Q446.398681640625 693.4498901367188 445.0436706542969 680.3997802734375Q443.68865966796875 667.3496704101562 441.9786376953125 643.2643737792969Q440.26861572265625 619.1790771484375 439.9786376953125 584.038330078125L438.23876953125 113.479736328125Q438.23876953125 79.479736328125 443.23876953125 64.26971435546875Q448.23876953125 49.0596923828125 459.8187255859375 49.0596923828125Q464.8187255859375 49.0596923828125 474.9989013671875 49.914703369140625Q485.1790771484375 50.76971435546875 501.6588134765625 52.0596923828125Q518.2089233398438 53.0596923828125 518.2089233398438 42.479736328125Q518.2089233398438 35.18975830078125 513.1289672851562 28.52984619140625Q508.04901123046875 21.86993408203125 503.04901123046875 21.86993408203125Q472.14923095703125 17.86993408203125 440.799560546875 9.78997802734375Q409.44989013671875 1.71002197265625 373.86993408203125 -13Q366.44989013671875 -16.71002197265625 363.36993408203125 -17.855010986328125Q360.28997802734375 -19 357.28997802734375 -19ZM260.34967041015625 43.799560546875Q282.28997802734375 43.799560546875 306.4200439453125 55.26971435546875Q330.55010986328125 66.7398681640625 347.81024169921875 86.13006591796875L348.23028564453125 280.9189453125Q348.23028564453125 304.439208984375 333.4552307128906 327.5394287109375Q318.68017578125 350.6396484375 293.6449890136719 365.5447692871094Q268.60980224609375 380.44989013671875 237.40936279296875 380.44989013671875Q214.119384765625 380.44989013671875 188.16415405273438 364.5650329589844Q162.20892333984375 348.68017578125 144.10870361328125 313.0351867675781Q126.00848388671875 277.39019775390625 126.00848388671875 216.18975830078125Q126.00848388671875 164.98931884765625 140.10870361328125 131.64923095703125Q154.20892333984375 98.30914306640625 175.37417602539062 79.14923095703125Q196.5394287109375 59.98931884765625 219.7196044921875 51.894439697265625Q242.8997802734375 43.799560546875 260.34967041015625 43.799560546875Z" fill="#0F1B2D" transform="translate(222.50,171.00) scale(0.03200,-0.03200)"/><path d="M202.24945068359375 -289.71002197265625Q112.8997802734375 -289.71002197265625 61.514923095703125 -257.9349670410156Q10.13006591796875 -226.159912109375 10.13006591796875 -171.7398681640625Q10.13006591796875 -144.28997802734375 17.840087890625 -126.14498901367188Q25.55010986328125 -108 45.44989013671875 -93.2601318359375Q61.18975830078125 -80.68017578125 82.80490112304688 -63.775054931640625Q104.4200439453125 -46.86993408203125 125.07037353515625 -30.6396484375L169.68017578125 -37.8592529296875Q127.479736328125 -64.2196044921875 109.0596923828125 -89.75479125976562Q90.6396484375 -115.28997802734375 90.6396484375 -151.23028564453125Q90.6396484375 -191.520263671875 125.70468139648438 -218.73028564453125Q160.76971435546875 -245.9403076171875 213.0596923828125 -245.9403076171875Q275.5394287109375 -245.9403076171875 308.92962646484375 -218.9403076171875Q331.60980224609375 -200.520263671875 344.44989013671875 -172.77505493164062Q357.28997802734375 -145.02984619140625 357.28997802734375 -115.08953857421875Q357.28997802734375 -95.119384765625 343.3848571777344 -82.21426391601562Q329.479736328125 -69.30914306640625 298.0746154785156 -61.034088134765625Q266.66949462890625 -52.759033203125 214.24945068359375 -49.1790771484375Q116.76971435546875 -41.0191650390625 77.659912109375 -19.104461669921875Q38.55010986328125 2.81024169921875 38.55010986328125 44.28997802734375Q38.55010986328125 54 44.05010986328125 62.934967041015625Q49.55010986328125 71.86993408203125 63 82.159912109375Q83.39019775390625 97.840087890625 95.11514282226562 106.77505493164062Q106.840087890625 115.71002197265625 113.64498901367188 122.5799560546875Q120.44989013671875 129.44989013671875 124.86993408203125 137.86993408203125L164.3795166015625 120.5799560546875Q142.95947265625 113.159912109375 128.82940673828125 100.09487915039062Q114.6993408203125 87.02984619140625 114.6993408203125 76.8997802734375Q114.6993408203125 64.0596923828125 128.97439575195312 54.7196044921875Q143.24945068359375 45.3795166015625 172.97439575195312 39.95947265625Q202.6993408203125 34.5394287109375 249.04901123046875 30.95947265625Q346.84857177734375 24.799560546875 393.1534729003906 -0.055450439453125Q439.4583740234375 -24.91046142578125 439.4583740234375 -71.200439453125Q439.4583740234375 -111.07037353515625 418.7984619140625 -149.58529663085938Q398.1385498046875 -188.1002197265625 363.9637145996094 -219.97015380859375Q329.78887939453125 -251.840087890625 287.8240661621094 -270.7750549316406Q245.8592529296875 -289.71002197265625 202.24945068359375 -289.71002197265625ZM214.82940673828125 140.71002197265625Q250.50958251953125 140.71002197265625 273.3347473144531 178.05010986328125Q296.159912109375 215.39019775390625 296.159912109375 272.97015380859375Q296.159912109375 304.5799560546875 284.10980224609375 330.8049011230469Q272.0596923828125 357.02984619140625 252.44454956054688 372.52984619140625Q232.82940673828125 388.02984619140625 208.98931884765625 388.02984619140625Q187.14923095703125 388.02984619140625 168.24411010742188 371.81982421875Q149.3389892578125 355.60980224609375 137.9989013671875 329.31982421875Q126.6588134765625 303.02984619140625 126.6588134765625 270.86993408203125Q126.6588134765625 235 138.4989013671875 205.35501098632812Q150.3389892578125 175.71002197265625 170.59912109375 158.21002197265625Q190.8592529296875 140.71002197265625 214.82940673828125 140.71002197265625ZM207.08953857421875 102.520263671875Q164.92962646484375 102.520263671875 126.04476928710938 123.66525268554688Q87.159912109375 144.81024169921875 62.21002197265625 180.47015380859375Q37.2601318359375 216.13006591796875 37.2601318359375 259.44989013671875Q37.2601318359375 307.60980224609375 63.21002197265625 344.26971435546875Q89.159912109375 380.92962646484375 131.33474731445312 401.50958251953125Q173.50958251953125 422.08953857421875 221.119384765625 422.08953857421875Q250.6993408203125 422.08953857421875 274.3741760253906 414.7345275878906Q298.04901123046875 407.3795166015625 323.398681640625 401.66949462890625Q345.6588134765625 395.82940673828125 361.398681640625 394.1844177246094Q377.1385498046875 392.5394287109375 394.74835205078125 392.5394287109375Q407.90826416015625 392.5394287109375 424.8933410644531 394.0394287109375Q441.87841796875 395.5394287109375 449.74835205078125 395.5394287109375Q463.90826416015625 395.5394287109375 463.90826416015625 377.92962646484375Q463.90826416015625 365.44989013671875 452.74835205078125 352.840087890625Q447.4583740234375 347.2601318359375 443.2984619140625 347.2601318359375H416.2984619140625Q389.58843994140625 347.2601318359375 384.55859375 339.2601318359375Q382.9786376953125 335.840087890625 381.6236267089844 330.2249450683594Q380.26861572265625 324.60980224609375 379.55859375 315.7547912597656Q378.84857177734375 306.8997802734375 378.84857177734375 292.97015380859375Q378.84857177734375 241.39019775390625 355.10870361328125 198.1002197265625Q331.36883544921875 154.81024169921875 292.46905517578125 128.66525268554688Q253.56927490234375 102.520263671875 207.08953857421875 102.520263671875Z" fill="#0F1B2D" transform="translate(239.23,171.00) scale(0.03200,-0.03200)"/><path d="M212.4200439453125 -14.71002197265625Q157.71002197265625 -14.71002197265625 116.13006591796875 12.86993408203125Q74.55010986328125 40.44989013671875 50.97015380859375 89.94989013671875Q27.39019775390625 139.44989013671875 27.39019775390625 203.5799560546875Q27.39019775390625 263.31982421875 54.905120849609375 312.26971435546875Q82.4200439453125 361.2196044921875 128.44989013671875 390.799560546875Q174.479736328125 420.3795166015625 229.3795166015625 420.3795166015625Q270.24945068359375 420.3795166015625 302.40936279296875 403.50958251953125Q334.56927490234375 386.6396484375 353.0841979980469 357.26971435546875Q371.59912109375 327.8997802734375 371.59912109375 290.02984619140625Q371.59912109375 256.71002197265625 341.30914306640625 256.71002197265625H134.078857421875Q120.078857421875 256.71002197265625 114.28887939453125 249.06503295898438Q108.4989013671875 241.4200439453125 108.4989013671875 220.28997802734375Q108.4989013671875 175.76971435546875 128.04901123046875 139.16949462890625Q147.59912109375 102.56927490234375 180.56927490234375 80.95413208007812Q213.5394287109375 59.3389892578125 254.08953857421875 59.3389892578125Q283.799560546875 59.3389892578125 308.299560546875 70.69400024414062Q332.799560546875 82.04901123046875 353.5394287109375 103.1790771484375Q357.24945068359375 107.30914306640625 359.82940673828125 109.09912109375Q362.40936279296875 110.88909912109375 365.40936279296875 110.88909912109375Q374.279296875 110.88909912109375 374.279296875 100.0191650390625Q374.279296875 83.9189453125 359.759033203125 62.36883544921875Q346.4989013671875 41.04901123046875 324.62896728515625 23.424285888671875Q302.759033203125 5.799560546875 274.1343078613281 -4.455230712890625Q245.50958251953125 -14.71002197265625 212.4200439453125 -14.71002197265625ZM135.4989013671875 291.479736328125H215.479736328125Q240.92962646484375 291.479736328125 255.75479125976562 292.479736328125Q270.5799560546875 293.479736328125 284.2601318359375 296.479736328125Q289.2601318359375 297.76971435546875 291.1950988769531 304.2846374511719Q293.13006591796875 310.799560546875 293.13006591796875 320.799560546875Q293.13006591796875 348.92962646484375 270.2398681640625 368.26971435546875Q247.34967041015625 387.60980224609375 214.95947265625 387.60980224609375Q192.82940673828125 387.60980224609375 171.42428588867188 374.68975830078125Q150.0191650390625 361.76971435546875 136.1790771484375 342.34967041015625Q122.3389892578125 322.92962646484375 122.62896728515625 302.92962646484375Q122.62896728515625 291.479736328125 135.4989013671875 291.479736328125Z" fill="#0F1B2D" transform="translate(253.89,171.00) scale(0.03200,-0.03200)"/><line x1="102.8" y1="188" x2="136.8" y2="188" stroke="#8E6E1A" stroke-width="0.7"/><line x1="243.2" y1="188" x2="277.2" y2="188" stroke="#8E6E1A" stroke-width="0.7"/><path d="M25.2601318359375 -5Q12.840087890625 -5 4.985076904296875 -1.5Q-2.86993408203125 2 -2.86993408203125 9.159912109375Q-2.86993408203125 17.02984619140625 5.05010986328125 22.2398681640625Q12.97015380859375 27.44989013671875 26.9403076171875 31.86993408203125Q54.1002197265625 39.86993408203125 75.95523071289062 56.159912109375Q97.81024169921875 72.44989013671875 112.07037353515625 105.1002197265625Q138.91046142578125 166.49041748046875 161.97549438476562 221.91046142578125Q185.04052734375 277.33050537109375 206.04052734375 331.1855163574219Q227.04052734375 385.04052734375 248.9605712890625 442.380615234375Q270.880615234375 499.720703125 294.43072509765625 564.6610107421875Q302.91046142578125 587.9403076171875 306.91046142578125 603.5351867675781Q310.91046142578125 619.1300659179688 312.49041748046875 630.7803955078125Q324.68017578125 634.3603515625 336.0 637.7953186035156Q347.31982421875 641.2302856445312 359.799560546875 647.520263671875Q371.6993408203125 653.8102416992188 378.38909912109375 665.3752746582031Q385.078857421875 676.9403076171875 389.23876953125 681.8102416992188Q391.398681640625 683.3901977539062 393.76861572265625 683.68017578125Q396.1385498046875 683.9701538085938 398.00848388671875 680.2302856445312Q400.58843994140625 675.3603515625 402.37841796875 669.2153625488281Q404.16839599609375 663.0703735351562 406.16839599609375 656.4904174804688Q429.00848388671875 583.3901977539062 453.7035827636719 507.86993408203125Q478.398681640625 432.34967041015625 502.1737365722656 360.299560546875Q525.9487915039062 288.24945068359375 547.0287475585938 226.70468139648438Q568.1087036132812 165.159912109375 583.0084838867188 119.3006591796875Q594.398681640625 86.2601318359375 609.0937805175781 68.43496704101562Q623.7888793945312 50.60980224609375 640.8539123535156 42.464813232421875Q657.9189453125 34.31982421875 677.9189453125 29.7398681640625Q692.59912109375 26.7398681640625 700.1641540527344 20.964813232421875Q707.7291870117188 15.18975830078125 707.7291870117188 7.31982421875Q707.7291870117188 1.02984619140625 700.4541320800781 -1.55010986328125Q693.1790771484375 -4.13006591796875 681.6289672851562 -4.13006591796875Q665.59912109375 -4.13006591796875 639.7142639160156 -2.775054931640625Q613.8294067382812 -1.4200439453125 585.8144836425781 -0.065032958984375Q557.799560546875 1.28997802734375 534.799560546875 1.28997802734375Q515.5095825195312 1.28997802734375 492.8997802734375 1.0Q470.28997802734375 0.71002197265625 449.520263671875 -0.0799560546875Q428.75054931640625 -0.86993408203125 413.85076904296875 -0.86993408203125Q402.3006591796875 -0.86993408203125 394.7356262207031 2.4200439453125Q387.17059326171875 5.71002197265625 387.17059326171875 12Q387.17059326171875 19.5799560546875 396.1556701660156 24.724945068359375Q405.1407470703125 29.86993408203125 416.9808349609375 31.86993408203125Q451.43072509765625 37.7398681640625 466.59063720703125 50.02984619140625Q481.75054931640625 62.31982421875 479.43072509765625 82.08953857421875Q477.9808349609375 98.5394287109375 471.77081298828125 124.28463745117188Q465.560791015625 150.02984619140625 457.720703125 178.7601318359375Q449.880615234375 207.49041748046875 442.75054931640625 230.75054931640625Q440.75054931640625 238.75054931640625 435.9754943847656 241.1204833984375Q431.200439453125 243.49041748046875 418.9403076171875 243.49041748046875H234.28997802734375Q229.13006591796875 243.49041748046875 224.9200439453125 239.700439453125Q220.71002197265625 235.91046142578125 217.28997802734375 225.7803955078125Q214 214.33050537109375 207.72494506835938 195.4403076171875Q201.44989013671875 176.55010986328125 195.31982421875 156.02984619140625Q189.18975830078125 135.50958251953125 184.479736328125 118.39443969726562Q179.76971435546875 101.279296875 178.60980224609375 93.3795166015625Q176 68.479736328125 191.55010986328125 53.544769287109375Q207.1002197265625 38.60980224609375 237.76971435546875 31.159912109375Q267.5799560546875 23.31982421875 267.5799560546875 10.5799560546875Q267.5799560546875 4.28997802734375 260.44989013671875 1.5Q253.31982421875 -1.28997802734375 240.8997802734375 -1.28997802734375Q222.1002197265625 -1.28997802734375 197.1002197265625 -0.144989013671875Q172.1002197265625 1 143.520263671875 1Q111.68017578125 1 81.98507690429688 -2.0Q52.28997802734375 -5 25.2601318359375 -5ZM261.5799560546875 283.7398681640625H407.880615234375Q422.17059326171875 283.7398681640625 422.17059326171875 289.31982421875Q422.17059326171875 291.8997802734375 421.67059326171875 294.10980224609375Q421.17059326171875 296.31982421875 420.17059326171875 299.60980224609375L346.23028564453125 536.9403076171875Q341.1002197265625 552.6204833984375 338.1002197265625 552.6204833984375Q336.1002197265625 552.6204833984375 330.68017578125 537.6503295898438L243.7398681640625 299.60980224609375Q241.7398681640625 294.18975830078125 241.7398681640625 291.60980224609375Q241.7398681640625 286.60980224609375 247.2398681640625 285.1748352050781Q252.7398681640625 283.7398681640625 261.5799560546875 283.7398681640625Z" fill="#8E6E1A" transform="translate(144.76,192.00) scale(0.01100,-0.01100)"/><path d="M406.13006591796875 -14.71002197265625Q333.520263671875 -14.71002197265625 267.3603515625 9.144989013671875Q201.200439453125 33 149.91046142578125 77.21002197265625Q98.6204833984375 121.4200439453125 69.26547241210938 183.340087890625Q39.91046142578125 245.2601318359375 39.91046142578125 320.68017578125Q39.91046142578125 392.23028564453125 69.75054931640625 454.3752746582031Q99.59063720703125 516.520263671875 153.15567016601562 563.3901977539062Q206.720703125 610.2601318359375 278.1055603027344 636.7750549316406Q349.49041748046875 663.2899780273438 432.28997802734375 663.2899780273438Q468.97015380859375 663.2899780273438 497.8550109863281 659.7100219726562Q526.7398681640625 656.1300659179688 553.979736328125 649.9051208496094Q581.2196044921875 643.68017578125 612.0298461914062 634.3901977539062Q625 630.3901977539062 631.5 622.9701538085938Q638 615.5501098632812 639 602.4200439453125Q641.8699340820312 575.6503295898438 644.4349670410156 547.700439453125Q647 519.7505493164062 647.7100219726562 485.68017578125Q648.4200439453125 477.23028564453125 640.6300659179688 472.8752746582031Q632.840087890625 468.520263671875 624.0501098632812 471.1002197265625Q615.2601318359375 473.68017578125 611.9701538085938 484.97015380859375Q602.840087890625 517.7505493164062 591.1449890136719 543.6556701660156Q579.4498901367188 569.560791015625 556.0596923828125 586.9808349609375Q532.5095825195312 605.1407470703125 497.1545715332031 615.2356262207031Q461.799560546875 625.3305053710938 417.60980224609375 625.3305053710938Q361.92962646484375 625.3305053710938 315.1844177246094 602.4104614257812Q268.439208984375 579.4904174804688 235.11404418945312 539.8603515625Q201.78887939453125 500.23028564453125 183.23876953125 450.2452087402344Q164.68865966796875 400.2601318359375 164.68865966796875 346.13006591796875Q164.68865966796875 283.39019775390625 182.30380249023438 225.40512084960938Q199.9189453125 167.4200439453125 233.66415405273438 122.09487915039062Q267.40936279296875 76.76971435546875 315.00958251953125 50.299560546875Q362.60980224609375 23.82940673828125 422.5799560546875 23.82940673828125Q495.44989013671875 23.82940673828125 542.0149230957031 56.24945068359375Q588.5799560546875 88.66949462890625 621 149.98931884765625Q628.2899780273438 164.439208984375 642.2249450683594 164.14923095703125Q656.159912109375 163.8592529296875 656.159912109375 147.8592529296875Q656.159912109375 138.119384765625 652.5948791503906 120.32940673828125Q649.0298461914062 102.5394287109375 643.1098022460938 82.45947265625Q637.1897583007812 62.3795166015625 630.8997802734375 44.76971435546875Q625.0596923828125 31.6396484375 619.8347473144531 26.76971435546875Q614.6098022460938 21.8997802734375 600.6396484375 16.8997802734375Q563.3496704101562 1.31982421875 511.7046813964844 -6.695098876953125Q460.0596923828125 -14.71002197265625 406.13006591796875 -14.71002197265625Z" fill="#8E6E1A" transform="translate(158.49,192.00) scale(0.01100,-0.01100)"/><path d="M25.2601318359375 -5Q12.840087890625 -5 4.985076904296875 -1.5Q-2.86993408203125 2 -2.86993408203125 9.159912109375Q-2.86993408203125 17.02984619140625 5.05010986328125 22.2398681640625Q12.97015380859375 27.44989013671875 26.9403076171875 31.86993408203125Q54.1002197265625 39.86993408203125 75.95523071289062 56.159912109375Q97.81024169921875 72.44989013671875 112.07037353515625 105.1002197265625Q138.91046142578125 166.49041748046875 161.97549438476562 221.91046142578125Q185.04052734375 277.33050537109375 206.04052734375 331.1855163574219Q227.04052734375 385.04052734375 248.9605712890625 442.380615234375Q270.880615234375 499.720703125 294.43072509765625 564.6610107421875Q302.91046142578125 587.9403076171875 306.91046142578125 603.5351867675781Q310.91046142578125 619.1300659179688 312.49041748046875 630.7803955078125Q324.68017578125 634.3603515625 336.0 637.7953186035156Q347.31982421875 641.2302856445312 359.799560546875 647.520263671875Q371.6993408203125 653.8102416992188 378.38909912109375 665.3752746582031Q385.078857421875 676.9403076171875 389.23876953125 681.8102416992188Q391.398681640625 683.3901977539062 393.76861572265625 683.68017578125Q396.1385498046875 683.9701538085938 398.00848388671875 680.2302856445312Q400.58843994140625 675.3603515625 402.37841796875 669.2153625488281Q404.16839599609375 663.0703735351562 406.16839599609375 656.4904174804688Q429.00848388671875 583.3901977539062 453.7035827636719 507.86993408203125Q478.398681640625 432.34967041015625 502.1737365722656 360.299560546875Q525.9487915039062 288.24945068359375 547.0287475585938 226.70468139648438Q568.1087036132812 165.159912109375 583.0084838867188 119.3006591796875Q594.398681640625 86.2601318359375 609.0937805175781 68.43496704101562Q623.7888793945312 50.60980224609375 640.8539123535156 42.464813232421875Q657.9189453125 34.31982421875 677.9189453125 29.7398681640625Q692.59912109375 26.7398681640625 700.1641540527344 20.964813232421875Q707.7291870117188 15.18975830078125 707.7291870117188 7.31982421875Q707.7291870117188 1.02984619140625 700.4541320800781 -1.55010986328125Q693.1790771484375 -4.13006591796875 681.6289672851562 -4.13006591796875Q665.59912109375 -4.13006591796875 639.7142639160156 -2.775054931640625Q613.8294067382812 -1.4200439453125 585.8144836425781 -0.065032958984375Q557.799560546875 1.28997802734375 534.799560546875 1.28997802734375Q515.5095825195312 1.28997802734375 492.8997802734375 1.0Q470.28997802734375 0.71002197265625 449.520263671875 -0.0799560546875Q428.75054931640625 -0.86993408203125 413.85076904296875 -0.86993408203125Q402.3006591796875 -0.86993408203125 394.7356262207031 2.4200439453125Q387.17059326171875 5.71002197265625 387.17059326171875 12Q387.17059326171875 19.5799560546875 396.1556701660156 24.724945068359375Q405.1407470703125 29.86993408203125 416.9808349609375 31.86993408203125Q451.43072509765625 37.7398681640625 466.59063720703125 50.02984619140625Q481.75054931640625 62.31982421875 479.43072509765625 82.08953857421875Q477.9808349609375 98.5394287109375 471.77081298828125 124.28463745117188Q465.560791015625 150.02984619140625 457.720703125 178.7601318359375Q449.880615234375 207.49041748046875 442.75054931640625 230.75054931640625Q440.75054931640625 238.75054931640625 435.9754943847656 241.1204833984375Q431.200439453125 243.49041748046875 418.9403076171875 243.49041748046875H234.28997802734375Q229.13006591796875 243.49041748046875 224.9200439453125 239.700439453125Q220.71002197265625 235.91046142578125 217.28997802734375 225.7803955078125Q214 214.33050537109375 207.72494506835938 195.4403076171875Q201.44989013671875 176.55010986328125 195.31982421875 156.02984619140625Q189.18975830078125 135.50958251953125 184.479736328125 118.39443969726562Q179.76971435546875 101.279296875 178.60980224609375 93.3795166015625Q176 68.479736328125 191.55010986328125 53.544769287109375Q207.1002197265625 38.60980224609375 237.76971435546875 31.159912109375Q267.5799560546875 23.31982421875 267.5799560546875 10.5799560546875Q267.5799560546875 4.28997802734375 260.44989013671875 1.5Q253.31982421875 -1.28997802734375 240.8997802734375 -1.28997802734375Q222.1002197265625 -1.28997802734375 197.1002197265625 -0.144989013671875Q172.1002197265625 1 143.520263671875 1Q111.68017578125 1 81.98507690429688 -2.0Q52.28997802734375 -5 25.2601318359375 -5ZM261.5799560546875 283.7398681640625H407.880615234375Q422.17059326171875 283.7398681640625 422.17059326171875 289.31982421875Q422.17059326171875 291.8997802734375 421.67059326171875 294.10980224609375Q421.17059326171875 296.31982421875 420.17059326171875 299.60980224609375L346.23028564453125 536.9403076171875Q341.1002197265625 552.6204833984375 338.1002197265625 552.6204833984375Q336.1002197265625 552.6204833984375 330.68017578125 537.6503295898438L243.7398681640625 299.60980224609375Q241.7398681640625 294.18975830078125 241.7398681640625 291.60980224609375Q241.7398681640625 286.60980224609375 247.2398681640625 285.1748352050781Q252.7398681640625 283.7398681640625 261.5799560546875 283.7398681640625Z" fill="#8E6E1A" transform="translate(172.30,192.00) scale(0.01100,-0.01100)"/><path d="M375.0596923828125 -7Q356.3603515625 -7 319.83050537109375 -5.0Q283.3006591796875 -3 242.13540649414062 -1.5Q200.97015380859375 0 168.799560546875 0Q148.799560546875 0 131.52984619140625 -0.855010986328125Q114.2601318359375 -1.71002197265625 95.2803955078125 -3.065032958984375Q76.3006591796875 -4.4200439453125 50.75054931640625 -4.4200439453125Q39.7803955078125 -4.4200439453125 32.3603515625 -1.13006591796875Q24.9403076171875 2.159912109375 24.9403076171875 9.159912109375Q24.9403076171875 17.44989013671875 32.07037353515625 20.81982421875Q39.200439453125 24.18975830078125 53.880615234375 26.8997802734375Q91.880615234375 34.18975830078125 106.23562622070312 49.02984619140625Q120.59063720703125 63.86993408203125 120.59063720703125 98.4200439453125V549.5799560546875Q120.59063720703125 584.4200439453125 106.52560424804688 598.840087890625Q92.4605712890625 613.2601318359375 53.880615234375 620.840087890625Q39.200439453125 623.5501098632812 32.07037353515625 627.6300659179688Q24.9403076171875 631.7100219726562 24.9403076171875 640Q24.9403076171875 647 32.3603515625 650.2899780273438Q39.7803955078125 653.5799560546875 50.75054931640625 653.5799560546875Q75.59063720703125 653.5799560546875 94.57037353515625 652.9349670410156Q113.55010986328125 652.2899780273438 131.88485717773438 651.5Q150.2196044921875 650.7100219726562 173.0596923828125 650.7100219726562Q188.76971435546875 650.7100219726562 213.84967041015625 651.8550109863281Q238.92962646484375 653 266.8795166015625 654.8550109863281Q294.82940673828125 656.7100219726562 318.7942199707031 657.8550109863281Q342.759033203125 659 355.6588134765625 659Q448.3795166015625 659 517.7697143554688 634.7899780273438Q587.159912109375 610.5799560546875 633.31982421875 567.2249450683594Q679.479736328125 523.8699340820312 702.8645935058594 465.78997802734375Q726.2494506835938 407.71002197265625 726.2494506835938 339.97015380859375Q726.2494506835938 269.71002197265625 700.4093627929688 207.14498901367188Q674.5692749023438 144.5799560546875 627.2942199707031 96.22494506835938Q580.0191650390625 47.86993408203125 515.8592529296875 20.434967041015625Q451.6993408203125 -7 375.0596923828125 -7ZM361.8997802734375 33.799560546875Q436.4200439453125 33.799560546875 491.3454284667969 70.0596923828125Q546.2708129882812 106.31982421875 576.0010986328125 170.71002197265625Q605.7313842773438 235.1002197265625 605.7313842773438 319.49041748046875Q605.7313842773438 389.75054931640625 585.0661315917969 445.5256042480469Q564.40087890625 501.3006591796875 528.7505493164062 539.9456481933594Q493.1002197265625 578.5906372070312 446.5799560546875 599.380615234375Q400.0596923828125 620.1705932617188 349.0596923828125 620.1705932617188Q309.82940673828125 620.1705932617188 282.5191650390625 617.8155822753906Q255.20892333984375 615.4605712890625 240.94879150390625 604.3454284667969Q226.68865966796875 593.2302856445312 226.68865966796875 567.2899780273438V124.76971435546875Q226.68865966796875 87.3795166015625 245.35391235351562 67.66949462890625Q264.0191650390625 47.95947265625 294.8944396972656 40.8795166015625Q325.76971435546875 33.799560546875 361.8997802734375 33.799560546875Z" fill="#8E6E1A" transform="translate(186.02,192.00) scale(0.01100,-0.01100)"/><path d="M57.01068115234375 -5Q45.17059326171875 -5 38.04052734375 -1.775054931640625Q30.91046142578125 1.44989013671875 30.91046142578125 7.44989013671875Q30.91046142578125 20.31982421875 60.1407470703125 26.31982421875Q96.69085693359375 34.18975830078125 113.38595581054688 48.7398681640625Q130.0810546875 63.28997802734375 130.0810546875 97.840087890625V549.5799560546875Q130.0810546875 584.4200439453125 116.1610107421875 598.9850769042969Q102.240966796875 613.5501098632812 65.11090087890625 620.840087890625Q49.560791015625 623.840087890625 42.575714111328125 629.1300659179688Q35.59063720703125 634.4200439453125 35.59063720703125 641.1300659179688Q35.59063720703125 647.4200439453125 42.865692138671875 650.5Q50.1407470703125 653.5799560546875 61.9808349609375 653.5799560546875Q95.3411865234375 653.5799560546875 121.69619750976562 652.5799560546875Q148.05120849609375 651.5799560546875 173.40621948242188 650.7899780273438Q198.76123046875 650 229.41156005859375 650Q269.0810546875 650 313.5554504394531 650.6449890136719Q358.02984619140625 651.2899780273438 394.24945068359375 651.5799560546875Q427.66949462890625 652.2899780273438 450.299560546875 653.8049011230469Q472.92962646484375 655.31982421875 476.92962646484375 655.31982421875Q482.799560546875 655.31982421875 489.5245056152344 652.5948791503906Q496.24945068359375 649.8699340820312 497.24945068359375 642.840087890625Q501.95947265625 612.2302856445312 507.3944396972656 582.4104614257812Q512.8294067382812 552.5906372070312 512.8294067382812 530.560791015625Q512.8294067382812 521.2708129882812 508.4743957519531 517.6908569335938Q504.119384765625 514.1109008789062 499.119384765625 514.1109008789062Q494.119384765625 514.1109008789062 490.95947265625 517.0458679199219Q487.799560546875 519.9808349609375 485.2196044921875 526.1407470703125Q478.479736328125 546.04052734375 472.4648132324219 562.4104614257812Q466.44989013671875 578.7803955078125 458.28997802734375 586.9403076171875Q445.159912109375 601.4904174804688 428.159912109375 608.4403076171875Q411.159912109375 615.3901977539062 389.55010986328125 615.3901977539062H278.26861572265625Q265.3389892578125 615.3901977539062 250.759033203125 605.520263671875Q236.1790771484375 595.6503295898438 236.1790771484375 579.3305053710938V375.44989013671875Q236.1790771484375 365.28997802734375 242.11404418945312 359.0799560546875Q248.04901123046875 352.86993408203125 256.4989013671875 352.86993408203125H351.439208984375Q379.56927490234375 352.86993408203125 390.7142639160156 365.8347473144531Q401.8592529296875 378.799560546875 409.439208984375 405.6396484375Q416.0191650390625 426.479736328125 428.30914306640625 426.479736328125Q432.59912109375 426.479736328125 436.9541320800781 421.8997802734375Q441.30914306640625 417.31982421875 441.0191650390625 408.44989013671875Q440.72918701171875 401.55010986328125 439.939208984375 387.55010986328125Q439.14923095703125 373.55010986328125 438.2942199707031 358.9850769042969Q437.439208984375 344.4200439453125 437.439208984375 334.68017578125Q437.439208984375 323.81024169921875 437.939208984375 308.18017578125Q438.439208984375 292.55010986328125 439.0841979980469 277.840087890625Q439.72918701171875 263.13006591796875 440.0191650390625 255.9403076171875Q440.59912109375 246.6204833984375 438.5191650390625 241.18551635742188Q436.439208984375 235.75054931640625 430.72918701171875 235.75054931640625Q415.14923095703125 235.75054931640625 407.439208984375 265.43072509765625Q400.56927490234375 291.04052734375 390.1343078613281 303.7803955078125Q379.6993408203125 316.520263671875 359.98931884765625 316.520263671875H266.6993408203125Q251.439208984375 316.520263671875 243.80914306640625 311.5852966308594Q236.1790771484375 306.65032958984375 236.1790771484375 291.39019775390625V100.2601318359375Q236.1790771484375 65.159912109375 251.0191650390625 51.52984619140625Q265.8592529296875 37.8997802734375 297.24945068359375 37.8997802734375H375.59912109375Q404.119384765625 37.8997802734375 425.0394287109375 41.979736328125Q445.95947265625 46.0596923828125 461.3795166015625 56.6396484375Q477.66949462890625 68.50958251953125 490.74945068359375 87.66949462890625Q503.82940673828125 106.82940673828125 518.3795166015625 134.50958251953125Q521.6694946289062 141.08953857421875 525.8144836425781 144.50958251953125Q529.95947265625 147.92962646484375 535.2494506835938 147.2196044921875Q540.5394287109375 146.50958251953125 543.2494506835938 142.1396484375Q545.95947265625 137.76971435546875 545.95947265625 131.479736328125Q545.95947265625 119.86993408203125 540.95947265625 97.80490112304688Q535.95947265625 75.7398681640625 528.45947265625 51.884857177734375Q520.95947265625 28.02984619140625 514.6694946289062 10.840087890625Q511.95947265625 3.840087890625 508.1545715332031 -0.434967041015625Q504.34967041015625 -4.71002197265625 497.76971435546875 -4.71002197265625Q462.23876953125 -4.71002197265625 423.26861572265625 -3.855010986328125Q384.2984619140625 -3 343.3837585449219 -2.0Q302.46905517578125 -1 261.45947265625 -0.144989013671875Q220.44989013671875 0.71002197265625 180.4200439453125 0.71002197265625Q159 0.71002197265625 140.1002197265625 -0.644989013671875Q121.200439453125 -2 101.59063720703125 -3.5Q81.9808349609375 -5 57.01068115234375 -5Z" fill="#8E6E1A" transform="translate(200.36,192.00) scale(0.01100,-0.01100)"/><path d="M46.55010986328125 -4.4200439453125Q33.840087890625 -4.4200439453125 26.565032958984375 -1.485076904296875Q19.28997802734375 1.44989013671875 19.28997802734375 7.7398681640625Q19.28997802734375 15.31982421875 27.5799560546875 18.884857177734375Q35.86993408203125 22.44989013671875 50.55010986328125 25.7398681640625Q74.97015380859375 31.8997802734375 91.40512084960938 51.18975830078125Q107.840087890625 70.479736328125 112.55010986328125 104.02984619140625Q122.520263671875 178.6610107421875 130.65032958984375 255.23138427734375Q138.7803955078125 331.8017578125 144.71536254882812 401.3614501953125Q150.65032958984375 470.921142578125 152.68017578125 524.520263671875Q152.97015380859375 531.6503295898438 152.97015380859375 540.6503295898438Q152.97015380859375 549.6503295898438 152.2601318359375 557.8102416992188Q151.55010986328125 569.2899780273438 148.24520874023438 578.5149230957031Q144.9403076171875 587.7398681640625 134.07037353515625 595.4498901367188Q118.1002197265625 607.840087890625 102.2601318359375 613.340087890625Q86.4200439453125 618.840087890625 65.7398681640625 622.840087890625Q55.159912109375 625.1300659179688 48.724945068359375 630.4850769042969Q42.28997802734375 635.840087890625 42.28997802734375 643.4200439453125Q42.28997802734375 651.7100219726562 51.21002197265625 653.7899780273438Q60.13006591796875 655.8699340820312 73.97015380859375 655.8699340820312Q85.71002197265625 655.8699340820312 106.78997802734375 654.8699340820312Q127.86993408203125 653.8699340820312 152.7398681640625 652.3049011230469Q177.60980224609375 650.7398681640625 200.42962646484375 649.7398681640625Q223.24945068359375 648.7398681640625 238.1790771484375 648.7398681640625Q245.46905517578125 648.7398681640625 251.04901123046875 644.159912109375Q256.62896728515625 639.5799560546875 258.62896728515625 632.159912109375Q264.4989013671875 613.5799560546875 269.78887939453125 594.5948791503906Q275.078857421875 575.6098022460938 282.36883544921875 556.31982421875L436.30914306640625 173.2984619140625Q439.0191650390625 167.16839599609375 445.4242858886719 166.10336303710938Q451.82940673828125 165.038330078125 454.95947265625 171.16839599609375L632.8209228515625 553.6204833984375Q638.6908569335938 577 643.5458679199219 598.4349670410156Q648.40087890625 619.8699340820312 651.6908569335938 634.7100219726562Q654.9808349609375 647.7100219726562 663.720703125 647.7100219726562H702.3305053710938Q736.3901977539062 648.2899780273438 774.2398681640625 652.4349670410156Q812.0895385742188 656.5799560546875 832.279296875 656.5799560546875Q839.0191650390625 656.5799560546875 846.8741760253906 654.5Q854.7291870117188 652.4200439453125 854.7291870117188 644.840087890625Q854.7291870117188 637.2601318359375 848.7942199707031 633.2601318359375Q842.8592529296875 629.2601318359375 829.59912109375 624.1300659179688Q819.2089233398438 620.2899780273438 805.9637145996094 615.159912109375Q792.718505859375 610.0298461914062 781.6182861328125 605.1897583007812Q765.8187255859375 598.2899780273438 756.9338684082031 586.6151428222656Q748.0490112304688 574.9403076171875 748.6289672851562 556.1109008789062Q749.4989013671875 485.240966796875 752.1438903808594 426.4957580566406Q754.7888793945312 367.75054931640625 757.6438903808594 314.8752746582031Q760.4989013671875 262 764.3539123535156 208.88485717773438Q768.2089233398438 155.76971435546875 771.4989013671875 95.86993408203125Q773.4989013671875 66.60980224609375 792.078857421875 50.3997802734375Q810.6588134765625 34.18975830078125 845.6289672851562 26.8997802734375Q860.3091430664062 23.8997802734375 867.8741760253906 19.8997802734375Q875.439208984375 15.8997802734375 875.439208984375 8.02984619140625Q875.439208984375 1.7398681640625 868.1641540527344 -1.195098876953125Q860.8890991210938 -4.13006591796875 849.3389892578125 -4.13006591796875Q824.078857421875 -4.13006591796875 802.8091430664062 -2.775054931640625Q781.5394287109375 -1.4200439453125 761.479736328125 -0.4200439453125Q741.4200439453125 0.5799560546875 719.2899780273438 0.5799560546875Q699.2899780273438 0.5799560546875 682.020263671875 -0.4200439453125Q664.7505493164062 -1.4200439453125 645.7708129882812 -2.9200439453125Q626.7910766601562 -4.4200439453125 601.240966796875 -4.4200439453125Q589.6908569335938 -4.4200439453125 582.1258239746094 -1.485076904296875Q574.560791015625 1.44989013671875 574.560791015625 7.7398681640625Q574.560791015625 15.31982421875 582.1258239746094 20.10980224609375Q589.6908569335938 24.8997802734375 604.3710327148438 26.8997802734375Q635.9808349609375 32.0596923828125 648.1407470703125 47.3997802734375Q660.3006591796875 62.7398681640625 659.720703125 96.28997802734375Q658.8507690429688 164.81024169921875 657.2057800292969 223.97015380859375Q655.560791015625 283.13006591796875 652.9957580566406 340.78997802734375Q650.4307250976562 398.44989013671875 647.4307250976562 461.68017578125Q646.720703125 471.23028564453125 642.3006591796875 470.73028564453125Q637.880615234375 470.23028564453125 633.4605712890625 461.1002197265625L417.3795166015625 -2.68017578125Q414.2196044921875 -10.86993408203125 406.2046813964844 -10.355010986328125Q398.18975830078125 -9.840087890625 395.60980224609375 -2.55010986328125Q352.840087890625 114.159912109375 305.2953186035156 227.51492309570312Q257.75054931640625 340.86993408203125 205.520263671875 464.6204833984375Q202.9403076171875 471.07037353515625 197.50534057617188 470.200439453125Q192.07037353515625 469.33050537109375 191.07037353515625 462.01068115234375Q184.1002197265625 399.2601318359375 178.63006591796875 340.3251647949219Q173.159912109375 281.39019775390625 170.60980224609375 223.23028564453125Q168.0596923828125 165.07037353515625 168.0596923828125 102.5799560546875Q168.0596923828125 75.28997802734375 185.34967041015625 54.674835205078125Q202.6396484375 34.0596923828125 236.24945068359375 26.8997802734375Q250.92962646484375 24.18975830078125 259.2196044921875 20.044769287109375Q267.50958251953125 15.8997802734375 267.50958251953125 8.02984619140625Q267.50958251953125 1.7398681640625 259.50958251953125 -1.195098876953125Q251.50958251953125 -4.13006591796875 239.95947265625 -4.13006591796875Q212.95947265625 -4.13006591796875 199.02450561523438 -2.775054931640625Q185.08953857421875 -1.4200439453125 174.00958251953125 -0.565032958984375Q162.92962646484375 0.28997802734375 143.34967041015625 0.28997802734375Q123.8997802734375 0.28997802734375 109.2601318359375 -0.71002197265625Q94.6204833984375 -1.71002197265625 80.17059326171875 -3.065032958984375Q65.720703125 -4.4200439453125 46.55010986328125 -4.4200439453125Z" fill="#8E6E1A" transform="translate(212.60,192.00) scale(0.01100,-0.01100)"/><path d="M185.76971435546875 -5.28997802734375Q172.76971435546875 -5.28997802734375 164.91470336914062 -2.065032958984375Q157.0596923828125 1.159912109375 157.0596923828125 7.44989013671875Q157.0596923828125 15.02984619140625 165.34967041015625 19.464813232421875Q173.6396484375 23.8997802734375 188.8997802734375 26.60980224609375Q226.8997802734375 33.8997802734375 245.159912109375 53.964813232421875Q263.4200439453125 74.02984619140625 263.4200439453125 108.5799560546875V253.1002197265625Q263.4200439453125 278.31982421875 253.21002197265625 301.6748352050781Q243 325.02984619140625 236.1002197265625 336.66949462890625L115.04052734375 531.279296875Q107.4605712890625 543.8592529296875 93.91046142578125 562.7494506835938Q80.3603515625 581.6396484375 64.020263671875 598.0298461914062Q47.68017578125 614.4200439453125 29.81024169921875 619.4200439453125Q15.840087890625 623.840087890625 7.9200439453125 628.5501098632812Q0 633.2601318359375 0 641.1300659179688Q0 647.7100219726562 7.4200439453125 650.5Q14.840087890625 653.2899780273438 26.1002197265625 653.2899780273438Q56.0596923828125 653.2899780273438 88.95947265625 651.3550109863281Q121.8592529296875 649.4200439453125 159.04901123046875 649.4200439453125Q185.52874755859375 649.4200439453125 209.218505859375 651.1449890136719Q232.90826416015625 652.8699340820312 254.997802734375 652.8699340820312Q266.54791259765625 652.8699340820312 274.9828796386719 649.9349670410156Q283.4178466796875 647 283.4178466796875 640.7100219726562Q283.4178466796875 633.1300659179688 274.9828796386719 628.340087890625Q266.54791259765625 623.5501098632812 251.86773681640625 620.1300659179688Q233.22808837890625 615.2601318359375 223.06817626953125 609.3901977539062Q212.90826416015625 603.520263671875 212.90826416015625 590.7803955078125Q212.90826416015625 576.9104614257812 225.32830810546875 555.0703735351562L321.0980224609375 382.4605712890625Q337.32830810546875 351.71002197265625 345.6182861328125 351.71002197265625Q351.038330078125 351.71002197265625 357.0234069824219 358.7601318359375Q363.00848388671875 365.81024169921875 373.398681640625 382.4605712890625Q396.68865966796875 419.7803955078125 415.84857177734375 454.8251647949219Q435.00848388671875 489.86993408203125 458.84857177734375 535.159912109375Q467.10870361328125 549.5501098632812 470.8187255859375 561.4701538085938Q474.52874755859375 573.3901977539062 474.52874755859375 582.3901977539062Q474.52874755859375 601.68017578125 459.7238464355469 609.6950988769531Q444.9189453125 617.7100219726562 428.88909912109375 619.4200439453125Q418.88909912109375 621.1300659179688 407.8240661621094 626.7750549316406Q396.759033203125 632.4200439453125 396.759033203125 640Q396.759033203125 646.2899780273438 405.1940002441406 649.0799560546875Q413.62896728515625 651.8699340820312 425.759033203125 651.8699340820312Q450.78887939453125 651.8699340820312 468.68865966796875 650.7899780273438Q486.58843994140625 649.7100219726562 510.32830810546875 649.7100219726562Q539.5884399414062 649.7100219726562 566.1385498046875 651.9349670410156Q592.6886596679688 654.159912109375 613.4583740234375 654.159912109375Q625.87841796875 654.159912109375 634.3133850097656 651.3699340820312Q642.7483520507812 648.5799560546875 642.7483520507812 641.4200439453125Q642.7483520507812 633.5501098632812 628.9231872558594 628.2750549316406Q615.0980224609375 623 597.5777587890625 617.8699340820312Q570.4178466796875 610.5799560546875 551.6129455566406 590.3848571777344Q532.8080444335938 570.1897583007812 510.15771484375 534.9893188476562Q491.60760498046875 505.72918701171875 477.3826599121094 483.4242858886719Q463.15771484375 461.119384765625 450.497802734375 441.08953857421875Q437.837890625 421.0596923828125 424.8229675292969 399.9648132324219Q411.80804443359375 378.86993408203125 395.38800048828125 351.44989013671875Q384.12786865234375 332.76971435546875 378.6929016113281 319.18975830078125Q373.2579345703125 305.60980224609375 371.38800048828125 292.36993408203125Q369.51806640625 279.13006591796875 369.51806640625 258.840087890625V108.86993408203125Q369.51806640625 73.71002197265625 388.3432312011719 54.2398681640625Q407.16839599609375 34.76971435546875 444.74835205078125 26.60980224609375Q460.00848388671875 23.60980224609375 468.2984619140625 19.60980224609375Q476.58843994140625 15.60980224609375 476.58843994140625 7.7398681640625Q476.58843994140625 1.44989013671875 468.7334289550781 -1.775054931640625Q460.87841796875 -5 448.4583740234375 -5Q423.1982421875 -5 402.3634948730469 -3.355010986328125Q381.52874755859375 -1.71002197265625 361.9040222167969 -0.4200439453125Q342.279296875 0.86993408203125 320.14923095703125 0.86993408203125Q296.59912109375 0.86993408203125 275.779296875 -0.4200439453125Q254.95947265625 -1.71002197265625 233.1396484375 -3.5Q211.31982421875 -5.28997802734375 185.76971435546875 -5.28997802734375Z" fill="#8E6E1A" transform="translate(228.58,192.00) scale(0.01100,-0.01100)"/></svg>